<svg version="1.2" xmlns="http://www.w3.org/2000/svg" viewBox="0 0 300 300" width="300" height="300"><style>.a{fill:#e7352c}</style><path class="a" d="m99.4 223.2c0 3.1-0.6 6.2-2 9-1.3 2.8-3.2 5.3-5.6 7.3-2.5 2-5.3 3.4-8.3 4.1-3 0.8-6.1 0.9-9.2 0.3-2-0.4-4-1.1-5.8-2.1-1.8-1-3.5-2.2-5-3.7-1.4-1.4-2.7-3.1-3.6-4.9-1-1.9-1.7-3.8-2.1-5.9-0.9-4.4-0.3-9 1.6-13.1 1.9-4 5.1-7.4 9.1-9.5 4-2.1 8.5-2.9 13-2.3 4.5 0.7 8.6 2.8 11.8 6q1.4 1.4 2.6 3.1 1.1 1.8 1.9 3.7 0.8 1.9 1.2 3.9 0.4 2.1 0.4 4.1zm183.5-21.9c-3.3-23.1-10.3-45.6-20.8-66.5-10.5-21-24.3-40.1-40.8-56.6-16.5-16.6-35.6-30.3-56.6-40.8-20.9-10.5-43.3-17.5-66.5-20.9q-4.2 2.2-8.2 4.7-4 2.5-7.8 5.3-3.9 2.8-7.5 5.8-3.6 3-7.1 6.3v20.3c22.7 0 45.2 4.5 66.2 13.2 20.9 8.7 40 21.4 56 37.5 16.1 16 28.8 35.1 37.5 56 8.7 21 13.2 43.5 13.3 66.2h20.3q3.2-3.5 6.2-7.1 3-3.6 5.8-7.4 2.8-3.9 5.3-7.8 2.5-4 4.7-8.2z"/><path class="a" d="m299.4 137.5c0-13.5-2-26.9-6-39.8-3.9-12.9-9.7-25.2-17.2-36.4-7.5-11.2-16.7-21.2-27.1-29.8-10.5-8.5-22.1-15.4-34.6-20.5q-6.2-2.6-12.7-4.5-6.4-1.9-13.1-3.2-6.6-1.3-13.3-1.9-6.7-0.7-13.4-0.6c-4.9 0-9.6 0-14.2 0.7l-3.2 9.1c16.6 5.8 32.5 13.4 47.4 22.8 14.9 9.3 28.6 20.3 41.1 32.8 12.4 12.4 23.4 26.2 32.8 41 9.3 14.9 17 30.8 22.8 47.4l9.1-3.3c0-4.5 0.9-9.1 0.9-14.2m-135.2 162.2c-21.2 0-42.3-4.2-62-12.3-19.7-8.2-37.6-20.1-52.7-35.1-15-15-27-32.9-35.2-52.5-8.2-19.7-12.5-40.7-12.6-62 0-10.7 1-21.3 3-31.8 2.1-10.4 5.2-20.7 9.3-30.5 4-9.9 9.1-19.3 15-28.1 5.9-8.9 12.7-17.1 20.3-24.6l9.2 8.6c-14 14-25.2 30.6-32.8 48.9-7.7 18.3-11.6 37.9-11.6 57.8 0 19.8 3.9 39.4 11.6 57.7 7.6 18.3 18.8 34.9 32.8 48.9 14 14.1 30.6 25.2 48.9 32.9 18.3 7.6 37.9 11.5 57.7 11.5 19.8 0 39.4-3.9 57.7-11.5 18.3-7.7 34.9-18.8 48.9-32.9l8.6 8.6c-7.6 7.6-16 14.3-24.9 20.1-9 5.9-18.5 10.9-28.4 14.8-10 4-20.3 7-30.8 8.9-10.6 1.9-21.3 2.8-32 2.6z"/><path class="a" d="m161.7 241.1c0.7-7.9 0.5-15.9-0.8-23.8-1.3-7.9-3.6-15.6-6.8-23-3.3-7.3-7.4-14.2-12.4-20.4-5-6.3-10.7-11.9-17.1-16.8q-5.1-4-10.7-7.3-5.7-3.3-11.7-5.7-6-2.5-12.4-4-6.3-1.6-12.8-2.3-1.6-0.2-3-1-1.5-0.8-2.5-2.1-1.1-1.2-1.6-2.8-0.5-1.6-0.4-3.2 0.1-1.3 0.6-2.4 0.4-1.2 1.2-2.2 0.8-1 1.9-1.7 1-0.7 2.2-1.1 0.4-0.1 0.8-0.2 0.4 0 0.9-0.1 0.4 0 0.8 0 0.4 0 0.8 0c14.6 1.5 28.6 5.9 41.5 12.8 12.8 7 24.2 16.4 33.4 27.7 9.2 11.3 16.2 24.3 20.4 38.3 4.2 14 5.6 28.7 4.2 43.2q-0.2 2.4-0.6 4.9-0.3 2.4-0.8 4.8-0.4 2.4-1 4.8-0.6 2.3-1.3 4.7l24.7 7q2.8-0.8 5.5-1.7 2.7-0.9 5.3-2 2.7-1 5.3-2.1 2.7-1.1 5.2-2.3 0.7-3.6 1.2-7.3 0.6-3.6 0.9-7.3 0.3-3.6 0.5-7.3 0.2-3.6 0.1-7.3c0-18.5-3.3-36.9-9.7-54.2-6.5-17.4-15.9-33.5-28-47.5-12.1-14.1-26.5-25.9-42.7-34.8-16.2-9-33.8-15.1-52.1-17.9q-3.1-0.5-6.2-0.8-3.1-0.3-6.3-0.3-3.1 0-6.2 0.3-3.1 0.3-6.2 0.8-3.9 1.1-7.6 2.6-3.7 1.6-7.1 3.7-3.4 2.2-6.4 4.7-3.1 2.6-5.8 5.7c-5.7 6.6-9.7 14.5-11.6 23.1-1.9 8.5-1.7 17.4 0.7 25.9 2.3 8.4 6.7 16.1 12.8 22.5 6 6.3 13.5 11 21.9 13.8q1.6 0.3 3.3 0.7 1.6 0.3 3.3 0.6 1.7 0.3 3.4 0.6 1.6 0.3 3.3 0.5c5.8 1 11.3 2.9 16.4 5.8 5.1 2.9 9.6 6.7 13.4 11.2 3.7 4.4 6.7 9.5 8.7 15 2 5.5 3 11.3 3 17.2q0 3.5-0.5 7-0.5 3.6-1.5 7-1 3.4-2.5 6.6-1.5 3.2-3.4 6.2l17 11q3.1 0.8 6.3 1.5 3.2 0.7 6.4 1.3 3.2 0.5 6.4 0.9 3.3 0.3 6.5 0.5 1.9-3.8 3.4-7.8 1.6-4 2.8-8.1 1.2-4.1 2-8.3 0.8-4.2 1.2-8.5"/></svg>