<svg version="1.2" xmlns="http://www.w3.org/2000/svg" viewBox="0 0 100 26" width="100%" height="100%">
  <style>
    .a {
      fill: #fff
    }

    .b {
      fill: #c00000
    }
  </style>
  <path
    d="m5 25.3c-2.1-0.4-3.9-2.3-4.1-4.3-0.1-0.3-0.1-4-0.1-8.2 0-8.3 0-8.2 0.5-9.2 0.3-0.6 0.4-0.9 1-1.4 0.6-0.6 0.7-0.6 1.4-1 0.7-0.3 0.8-0.4 1.5-0.5 0.2 0 20.5 0 45.1 0 45.8 0 45.1 0 45.5 0.3q0.1 0 0.1 0c0.1 0 1 0.5 1.1 0.5 0.1 0.1 0.2 0.2 0.4 0.3 0.2 0.2 0.6 0.6 0.8 0.9 0.2 0.3 0.5 0.7 0.4 0.7q0 0 0.1 0.1c0 0.1 0.1 0.2 0.1 0.2 0 0.1 0.1 0.3 0.1 0.5 0.1 0.2 0.2 0.6 0.2 0.9 0.1 0.7 0.1 15.8 0 16.3 0 0.1-0.1 0.3-0.1 0.4q-0.1 0.1-0.1 0.1c0.1 0 0 0.3-0.2 0.6-0.7 1.4-1.9 2.3-3.5 2.7-0.3 0.1-89.7 0.1-90.2 0.1zm38.6-2.3c0-0.1-0.4-0.9-0.9-1.9l-0.8-1.7v-6.7c0-5.8 0-6.8-0.2-7.2-0.2-0.8-0.7-1.6-1.6-2.1-0.8-0.5 0.3-0.5-17.5-0.5-17.9 0-16.7 0-17.6 0.5-0.8 0.5-1.5 1.4-1.6 2.3-0.1 0.3-0.1 3.1-0.1 7.4 0 7.6 0 7.4 0.5 8.2 0.2 0.5 0.9 1.1 1.3 1.3 0.1 0.1 0.4 0.3 0.6 0.3 0.4 0.2 1.3 0.2 19.2 0.2 14.9 0 18.7 0 18.7-0.1zm27.5-3.2q3.1-0.8 4.2-3.9c0.9-2.4 0.7-5.6-0.5-7.7-0.4-0.6-1.4-1.6-2.1-1.9-2.1-1.2-5.1-1.2-7.3-0.1-0.3 0.2-0.8 0.6-1.2 1-0.6 0.6-0.7 0.8-1.1 1.5-0.6 1.4-0.9 2.8-0.8 4.5 0.2 3.7 2 6.1 5.2 6.7 0.9 0.2 2.8 0.1 3.6-0.1zm-22.4-4.6c0-2.5-0.1-5-0.1-5.5v-1h0.3c0.2 0 0-0.4 2.8 4.5 0.5 0.8 1.5 2.6 2.3 4.1l1.5 2.5 1.8 0.1h1.8v-7.2-7.1h-1.2-1.2l0.1 4.8c0 2.7 0 5.2 0 5.6l0.1 0.6h-0.3-0.3l-3.2-5.5-3.2-5.5h-1.7-1.8v7.1 7.2h1.2 1.2zm36 2.2c1.2-4.9 1.6-6.4 1.8-7.5l0.2-1.2h0.2c0.3 0 0.3 0 0.4 0.6 0.2 1.1 0.7 3.2 1.6 6.9l0.9 3.6h1.6 1.6l1.7-7c1-3.9 1.8-7.1 1.9-7.2 0-0.1-0.3-0.1-1.2-0.1h-1.3l-0.1 0.4c-0.7 2.8-2.2 9.5-2.4 10.8l-0.1 0.6h-0.3c-0.2 0-0.2 0-0.3-0.4-0.1-1.1-0.6-3.1-1.6-7.1l-1.1-4.3h-1.3-1.2l-0.7 2.7c-1.5 5.7-1.8 6.8-1.9 7.9l-0.2 1.1h-0.3c-0.2 0-0.2 0-0.3-0.2 0-0.1-0.1-0.8-0.3-1.7-0.1-0.8-0.7-3.3-1.2-5.5-0.5-2.1-0.9-4-1-4.1 0-0.2 0-0.2-1.3-0.2-1.1 0-1.2 0-1.2 0.1 0.1 0.2 0.7 2.5 2.3 8.8 0.7 2.9 1.3 5.3 1.3 5.3 0.1 0.1 0.4 0.1 1.6 0.1h1.5z" />
  <path
    d="m67.7 17.8c-1.3-0.4-2.1-1.3-2.4-2.9-0.2-0.9-0.2-3.5 0-4.4 0.2-1.2 0.9-2.2 1.7-2.6 1.1-0.6 3-0.6 4.1 0 0.8 0.4 1.5 1.4 1.8 2.6 0.1 0.5 0.1 1 0.1 2.2 0 1.8-0.1 2.5-0.6 3.4-0.2 0.5-0.8 1.2-1.3 1.4-0.8 0.4-2.4 0.5-3.4 0.3z" />
  <path class="a"
    d="m19.5 20.5c-0.8-0.1-1.5-0.3-2.1-0.5l-0.4-0.2v-1.7-1.7h0.2c0.1 0 0.7 0.2 1.1 0.4 1.4 0.5 2.3 0.8 3.2 0.8 0.7 0 0.9-0.1 1.2-0.2 0.6-0.3 0.9-0.9 0.7-1.4-0.2-0.5-0.7-0.9-2-1.5-2.4-1.2-3-1.7-3.6-2.6-0.5-0.7-0.6-1.3-0.6-2.5-0.1-1.1 0.1-1.6 0.5-2.3q1.2-2.1 4.7-2.1c1.5 0 2.8 0.3 4.2 0.9 0.3 0.2 0.4 0.2 0.4 0.4 0 0.2-0.3 0.8-0.5 1.5l-0.5 1.2-0.4-0.1c-0.2 0-0.7-0.2-1.1-0.3-0.8-0.3-2.1-0.6-2.4-0.5-0.5 0.1-0.7 0.2-1 0.5q-0.8 0.7 0 1.5c0.3 0.3 0.8 0.6 1.8 1.1 2.6 1.3 3.5 2 3.9 3.3 0.2 0.6 0.3 2.3 0.1 3-0.4 1.5-1.5 2.5-3.2 2.9-0.8 0.2-3.3 0.3-4.2 0.1z" />
  <path class="a"
    d="m5.7 12.8v-7.6h4.4c2.4 0 4.4 0 4.5 0 0.1 0.1 0.1 0.5 0.1 1.6l-0.1 1.5h-2.6-2.7v1.4 1.3h2.5 2.5v1.6 1.5h-2.5-2.5v1.6 1.7h2.7 2.6v1.5 1.6h-4.4-4.5z" />
  <path class="a"
    d="m29.9 12.8v-7.6h2.4c3.8 0 5 0.1 6.1 0.7 1 0.5 1.8 1.5 2 2.6 0.1 0.3 0.1 0.9 0.1 1.6 0 1.8-0.3 2.7-1.2 3.6q-0.9 0.9-2.2 1.3c-0.5 0.1-1 0.1-2.1 0.2h-1.5v2.7 2.6h-1.8-1.8zm5.8-1c0.7-0.3 1-0.7 1.2-1.3 0.1-0.5 0-1-0.4-1.5-0.3-0.5-1.2-0.8-2.5-0.8h-0.5v2 1.9h0.9c0.7 0 0.9-0.1 1.3-0.3z" />
  <path class="a"
    d="m67.3 20.1c-2.1-0.3-3.7-1.6-4.5-3.3-0.5-1.1-0.7-2.1-0.7-3.6-0.1-2 0.1-3.3 0.8-4.7 0.4-0.7 0.5-0.9 1.1-1.5 1.4-1.4 3-2 5.5-1.9 1.4 0.1 2.4 0.3 3.5 0.9 0.6 0.4 1.6 1.4 2 2 0.8 1.4 1.2 3.2 1.1 5.3q-0.2 3.4-2 5.2c-0.8 0.8-1.6 1.2-2.8 1.5-0.8 0.3-3.1 0.3-4 0.1zm2.7-2.5c0.7-0.2 1.1-0.4 1.6-0.9 0.5-0.5 0.8-1.1 1-2 0.2-0.9 0.2-3 0-3.9-0.3-1.3-0.9-2.3-1.8-2.7-0.4-0.2-1.2-0.4-1.7-0.4-0.6 0-1.4 0.2-1.8 0.4-0.9 0.4-1.5 1.4-1.8 2.6-0.2 0.9-0.2 3.1 0 4 0.3 1.2 0.8 2.1 1.6 2.5 0.8 0.4 1.9 0.6 2.9 0.4z" />
  <path class="a"
    d="m46.2 12.7v-7.4l2 0.1h2l3.1 5.5c1.8 3 3.3 5.5 3.3 5.5 0 0 0-0.2 0-0.4 0-0.2-0.1-2.7-0.1-5.5v-5.2h1.4 1.4v7.4 7.4h-2-2l-1.5-2.6c-0.8-1.4-1.9-3.3-2.3-4.1-2.8-4.8-2.6-4.5-2.7-4.2 0 0.1 0.1 0.7 0.1 1.3 0 0.6 0.1 3 0.1 5.4v4.2h-1.4-1.4z" />
  <path class="a"
    d="m80.7 20c0 0-0.6-2.4-1.3-5.3-0.8-2.9-1.6-6.1-1.9-7.2-0.2-1.1-0.5-2-0.5-2.1 0 0 0.5-0.1 1.6-0.1 1.5 0 1.5 0 1.5 0.2 0 0.1 0.5 2 1 4.2 0.5 2.2 1 4.7 1.2 5.5 0.2 0.8 0.3 1.6 0.3 1.7 0.1 0.1 0.1-0.2 0.3-0.9 0.2-1.1 0.4-2.3 1.9-8l0.7-2.7h1.5 1.5l1.1 4.3c1.2 4.5 1.2 4.9 1.5 6.5l0.2 1.1 0.1-0.6c0.2-1.3 0.5-2.7 1.4-6.5 0.5-2.2 1-4.2 1-4.4l0.1-0.4h1.5c0.9 0 1.6 0.1 1.6 0.1 0 0-0.9 3.4-1.9 7.4l-1.9 7.3h-1.7-1.8l-1-3.9c-1-3.7-1.4-5.3-1.6-6.6l-0.1-0.6-0.2 1.2c-0.2 1.1-0.6 2.6-1.9 7.5l-0.6 2.4h-1.7c-1.4 0-1.8 0-1.9-0.1z" />
  <path class="b"
    d="m5.5 23.2c-0.2-0.1-0.5-0.2-0.6-0.3-0.5-0.2-1.1-0.9-1.4-1.3-0.5-0.9-0.5-0.7-0.5-8.5 0-4.5 0.1-7.3 0.1-7.6 0.2-0.9 0.8-1.8 1.7-2.3 0.9-0.5-0.3-0.5 17.8-0.5 18.1 0 16.9 0 17.8 0.5 0.8 0.5 1.4 1.2 1.6 2.1 0.1 0.4 0.1 1.4 0.1 7.2v6.6l1 2.1c0.5 1.1 1 2.1 1 2.1 0 0-8.6 0-19.1 0-18.2 0-19.1 0-19.5-0.1zm18-3c1.7-0.5 2.8-1.4 3.2-2.9 0.2-0.7 0.1-2-0.1-2.6-0.5-1.2-1.3-1.9-3.9-3.2-1.5-0.8-1.9-1.1-2.1-1.5-0.2-0.3-0.2-1 0-1.2 0.1-0.3 0.4-0.7 0.7-0.8 0.7-0.3 2.1-0.1 3.4 0.4 0.5 0.1 0.9 0.3 0.9 0.3 0.1 0 0.3-0.3 0.6-1.2 0.3-0.6 0.5-1.2 0.5-1.2-0.1-0.1-1.2-0.5-1.8-0.7-1-0.2-1.5-0.3-2.6-0.3-2.1 0-3.6 0.7-4.4 2-0.4 0.7-0.5 1.2-0.5 2.1 0 1.3 0.4 2.1 1.3 3.1 0.5 0.4 1.1 0.8 2.9 1.7 1.8 0.9 2.2 1.4 2.1 2.3q-0.1 0.8-0.8 1.1c-0.3 0.2-0.5 0.2-1.4 0.2-1.3 0-2-0.2-4.2-1.1-0.1 0-0.1 0.3-0.1 1.4v1.5l0.5 0.2c1.2 0.5 2.2 0.6 3.9 0.6 1 0 1.4-0.1 1.9-0.2zm-9.1-1.3v-1.3h-2.7-2.6v-1.8-1.9h2.5 2.5v-1.3-1.3h-2.5-2.5v-1.6-1.7h2.6 2.7v-1.2c0-0.7 0-1.3 0-1.3 0 0-2 0-4.3 0h-4.2v7.4 7.4l4.3-0.1h4.2zm18.9-1.3v-2.6l1.5-0.1c1.6 0 2.3-0.2 3.2-0.6 0.7-0.4 1.5-1.2 1.8-1.8 0.5-0.9 0.7-2.6 0.4-3.8-0.3-1.1-1-2-2-2.5-1.2-0.6-1.8-0.7-5.2-0.7l-2.8-0.1v7.4 7.5h1.5 1.6z" />
  <path class="b"
    d="m33.3 10.2v-2.2h0.7c2 0 2.8 0.4 3.1 1.6 0.1 0.4 0.1 1.2-0.1 1.6-0.3 0.5-0.9 0.9-1.6 1.1-0.2 0-0.8 0.1-1.2 0.1h-0.9z" />
</svg>