<svg width="1600pt" height="896" viewBox="0 0 1600 672" xmlns="http://www.w3.org/2000/svg"><g fill="#bcbebc"><path d="M40.67 0h1520.78c7.03 1.89 14.15 4.08 19.97 8.64 8.18 6.22 14.35 15.22 16.92 25.2.52 1.79 1.09 3.56 1.66 5.34v596.4c-1.85 10.21-6.55 20.16-14.45 27.06-5.2 4.37-11.28 7.88-17.95 9.36H31.4c-5.48-2.41-11.13-4.71-15.72-8.66C7.08 656.48 1.99 646.07 0 635.4V41.39c1.44-8.74 4.61-17.28 10.19-24.23C17.39 7.46 28.88 1.72 40.67 0m.66 10.4C32.81 12.02 25 16.83 19.31 23.32c-5.65 6.92-9.06 15.73-9.19 24.69-.52 16.32.12 32.64-.12 48.95.1 163.69-.07 327.39.01 491.07-.19 13.32-.27 26.64 0 39.95.04 9.64 3.97 19.29 11.14 25.82 6.78 6.02 15.84 9.41 24.92 9.3 23.97-.08 47.95.17 71.92-.16 21.35.54 42.7-.33 64.05.15 12.31-.43 24.62.32 36.93-.16 10 .06 20.01.38 30.01.03 435.02.07 870.05-.09 1305.07.07 12.43.32 24.81-6.07 31.18-16.86 4.67-7.89 4.75-17.32 4.85-26.21-.33-79.31-.04-158.63-.19-237.95-.06-110.31.06-220.64-.02-330.95.83-13.75-6.07-27.84-17.87-35.09-6.38-4.51-14.28-6.16-21.98-6.17-500.65.06-1001.3.07-1501.94-.01-2.26.06-4.53.21-6.75.61z"/><path d="M79.38 26.31c.87-1.3 2.08-1.86 3.61-1.7 25.28.13 50.56-.07 75.84.09-3.61 3.92-2.71 9.41-2.74 14.29.15 36.34-.11 72.69.07 109.04.01 2.91-.3 5.81-.38 8.73-10.61-.26-21.22-.01-31.83-.14-17.34.13-35.53 6.01-47.02 19.57-11.07-5.07-22-10.46-33.03-15.62-.06.63-.2 1.9-.27 2.53l-.81-2.95c-5.66-2.54-11.26-5.24-16.75-8.13-4.01-2.03-4.31-7.13-4.41-11.06.17-12.3.1-24.6.3-36.9-.31-8.38-.64-16.79.43-25.13 3.14 12.74 12.13 24.03 24.05 29.6 10.96 5.35 24.16 5.78 35.53 1.46 11.25-4.58 20.73-13.75 24.98-25.2 4.92-12.24 3.66-26.6-2.79-38.04-5.29-9.63-14.41-16.93-24.78-20.44zM1424.2 25.1c10.26.58 20.56-.02 30.84.14 21 .06 42.01.15 63.02-.03 1.27-.1 2.43.25 3.49 1.03-17.25 5.21-30.59 21.66-31.42 39.76-1.29 18.1 9.75 36.24 26.48 43.32 17.17 7.63 38.75 2.92 51.21-11.15a6.6 6.6 0 0 1 .97 3.76c-.04 152.04-.01 304.08.03 456.12-.32 6.39.82 12.97-.82 19.24-7.09-6.31-15.76-11.06-25.31-12.04-19.97-2.77-40.61 9.95-47.3 28.91-5.61 14.74-2.09 32.35 8.41 44.04 2.92 3.31 6.27 6.22 9.9 8.75-1.17.62-2.4.92-3.69.89-33.75-.13-67.52.37-101.27-.19 2.01-.61 4.93-.56 5.9-2.8.88-2.82.8-5.82 1.08-8.73 3.48-.08 6.96-.15 10.46-.22.33-1.95.61-3.93.66-5.9-.02-199.01.01-398.01-.02-597.02.08-2.88-.09-6.04-2.62-7.88z"/><path d="M211.41 32.15c130.89-.16 261.79-.11 392.68-.08 186.97-.12 373.93.01 560.91-.02 85-.15 170.01.19 255.01-.21-.24 51.73-.03 103.46-.11 155.18-.05 113 .01 225.99-.01 338.99-.12 34.63.28 69.27-.17 103.9-50.89.34-101.79.04-152.69.15-291.34-.05-582.69-.01-874.03 0-36.03.04-72.07.03-108.1-.12-.6-21.96-.12-43.95-.31-65.91.1-120.67.07-241.34.01-362.01.16-7.76-1.12-16.09-6.34-22.16-4.7-6.25-12.47-9.67-20.2-9.6-15.46 0-30.93 0-46.38.06-.45-46.05-.06-92.11-.27-138.17m27.49 25.67c-.09 29-.25 58.01.06 87.01 14.35.08 28.69-.01 43.03.02 4.21.07 8.49-.35 12.64.59 7.06 2 13.1 7.5 15.56 14.45 1.87 4.49 1.45 9.43 1.49 14.17.12 143.37-.14 286.74.2 430.1 54.7.25 109.41.05 164.12.13 281.35-.05 562.69.03 844.03-.01 24.25-.18 48.52.34 72.75-.21-.01-182.06 0-364.11 0-546.16-16.57-.33-33.15-.04-49.72-.17-368.06.07-736.11-.09-1104.16.08z"/><path d="M270.4 86.5c8.7-1.55 16.99 6.83 15.94 15.47-.31 7.64-7.83 13.87-15.4 12.75-7.62-.46-13.46-8.19-12.27-15.63.38-6.26 5.54-11.75 11.73-12.59zM98.13 469.57c19.37-.06 38.75.19 58.12-.14-.36 54.19-.07 108.4-.1 162.6.07 3.28-.16 6.68.91 9.84.93 2.77 3.47 4.5 5.93 5.81-24.32.54-48.65.04-72.97.05-1.28.02-2.5-.22-3.68-.71 8.63-5.67 15.65-13.99 18.86-23.88 5.2-15.12 1.01-32.85-10.03-44.32-5-5.04-10.97-9.28-17.75-11.53-13.98-4.74-30.36-2.05-41.86 7.29-5.45 4.51-10.31 9.96-13.13 16.52-.18-25.03.05-50.08-.09-75.12-.22-4.33 1.79-8.84 5.6-11.07 4.89-2.84 10.27-4.69 15.56-6.65 18.08-7.24 36.27-14.25 54.32-21.59.1-2.37.21-4.74.31-7.1z"/></g><path fill="#d6d7d8" d="M41.33 10.4c2.22-.4 4.49-.55 6.75-.61 500.64.08 1001.29.07 1501.94.01 7.7.01 15.6 1.66 21.98 6.17 11.8 7.25 18.7 21.34 17.87 35.09.08 110.31-.04 220.64.02 330.95.15 79.32-.14 158.64.19 237.95-.1 8.89-.18 18.32-4.85 26.21-6.37 10.79-18.75 17.18-31.18 16.86-435.02-.16-870.05 0-1305.07-.07-10 .35-20.01.03-30.01-.03-12.31.48-24.62-.27-36.93.16-21.35-.48-42.7.39-64.05-.15-23.97.33-47.95.08-71.92.16-9.08.11-18.14-3.28-24.92-9.3-7.17-6.53-11.1-16.18-11.14-25.82-.27-13.31-.19-26.63 0-39.95-.08-163.68.09-327.38-.01-491.07.24-16.31-.4-32.63.12-48.95.13-8.96 3.54-17.77 9.19-24.69 5.69-6.49 13.5-11.3 22.02-12.92m12.66 15.55c-9.31 2.23-17.46 8.14-23.4 15.54-8.11 10.41-11.52 24.58-8.2 37.44-1.07 8.34-.74 16.75-.43 25.13-.2 12.3-.13 24.6-.3 36.9.1 3.93.4 9.03 4.41 11.06 5.49 2.89 11.09 5.59 16.75 8.13l.81 2.95c-.34 27.97-.11 55.95-.2 83.93-.12 83.74-.08 167.49.07 251.23-5.29 1.96-10.67 3.81-15.56 6.65-3.81 2.23-5.82 6.74-5.6 11.07.14 25.04-.09 50.09.09 75.12-5.36 12.08-4.99 26.5 1.07 38.24 5.83 11.05 16.31 19.66 28.49 22.68 11.5 2.89 24.16 1.08 34.35-5 1.18.49 2.4.73 3.68.71 24.32-.01 48.65.49 72.97-.05 7.63.3 15.28.19 22.92.24 54.04-.03 108.08.06 162.11-.19 242.32 0 484.64.02 726.96.01 111.25-.06 222.51.13 333.76-.09 33.75.56 67.52.06 101.27.19 1.29.03 2.52-.27 3.69-.89 12.2 7.31 27.95 8.44 41.05 2.84 11.01-4.56 19.88-13.85 24.02-25.03 6.07-16.17 1.68-35.5-10.77-47.47 1.64-6.27.5-12.85.82-19.24-.04-152.04-.07-304.08-.03-456.12a6.6 6.6 0 0 0-.97-3.76c7.22-8.24 11.33-19.15 10.96-30.14.01-17.6-11.65-34.43-28.09-40.69-9.28-3.46-19.63-3.85-29.14-1.1-1.06-.78-2.22-1.13-3.49-1.03-21.01.18-42.02.09-63.02.03-10.28-.16-20.58.44-30.84-.14l-3.18-.52c-266.36.01-532.71 0-799.07-.01-154.37.1-308.75-.18-463.12.13-25.28-.16-50.56.04-75.84-.09-1.53-.16-2.74.4-3.61 1.7-8.23-2.4-17.09-2.49-25.39-.36z"/><g fill="#51514e"><path d="M53.99 25.95c8.3-2.13 17.16-2.04 25.39.36 10.37 3.51 19.49 10.81 24.78 20.44 6.45 11.44 7.71 25.8 2.79 38.04-4.25 11.45-13.73 20.62-24.98 25.2-11.37 4.32-24.57 3.89-35.53-1.46-11.92-5.57-20.91-16.86-24.05-29.6-3.32-12.86.09-27.03 8.2-37.44 5.94-7.4 14.09-13.31 23.4-15.54m4.36 5.56C38 34.89 23.37 57.27 28.67 77.24c3.19 10.95 10.61 21.33 21.35 25.87 7.85 3.32 16.76 4.49 25.05 2.16 19.03-4.08 32.17-25.35 27.83-44.21-2.34-8.74-7.06-17.06-14.3-22.63-8.54-6.35-19.8-9.03-30.25-6.92zm1463.2-5.27c9.51-2.75 19.86-2.36 29.14 1.1 16.44 6.26 28.1 23.09 28.09 40.69.37 10.99-3.74 21.9-10.96 30.14-12.46 14.07-34.04 18.78-51.21 11.15-16.73-7.08-27.77-25.22-26.48-43.32.83-18.1 14.17-34.55 31.42-39.76m5.81 5.2c-16.94 2.78-30.04 18.66-30.88 35.56-.5 9.78 3.47 19.34 9.8 26.67 6.17 7.99 16.23 12.06 26.08 12.88 9.46.26 19.11-2.65 26.5-8.66 10.56-9.21 16.58-24.33 12.5-38.13-2.95-10.25-9.48-20.13-19.39-24.72-7.65-3.38-16.29-5.49-24.61-3.6z"/><path d="M42.03 51.37c2.16-2.17 4.4-4.28 6.72-6.29 5.89 5.23 10.93 11.4 17.06 16.34 5.68-5.29 11.29-10.67 16.46-16.46 2.95 1.6 5.34 4.06 7.17 6.86-5.63 5.36-10.89 11.09-16.4 16.57 5.1 6.17 11.46 11.21 16.37 17.55-2.19 1.98-4.05 5.19-7.02 5.77-5.9-4.91-10.75-10.94-16.57-15.96-6.08 5.03-11.18 11.11-16.91 16.52-2.61-1.78-4.74-4.11-6.75-6.51 5.22-5.77 10.64-11.36 16.11-16.91-5.14-6.08-11.23-11.3-16.24-17.48zm1475.29-6.32c5.89 5.13 10.87 11.21 16.72 16.4 6.27-4.71 10.7-11.57 17.02-16.13 2.76 1.5 4.95 3.88 6.9 6.32-5.35 5.82-11.46 10.94-16.29 17.22 5.58 5.48 10.85 11.27 16.28 16.92-2 2.5-4.31 4.72-6.88 6.62a1975.45 1975.45 0 0 0-16.53-16.48c-6.32 4.41-10.68 11.11-16.76 15.85-3.24.15-5.04-3.8-7.2-5.79 5.23-6.01 11.42-11.14 16.3-17.46-5.44-5.55-11.07-10.92-16.37-16.6 1.92-2.61 4.36-4.77 6.81-6.87zM35.56 574.58c11.5-9.34 27.88-12.03 41.86-7.29 6.78 2.25 12.75 6.49 17.75 11.53 11.04 11.47 15.23 29.2 10.03 44.32-3.21 9.89-10.23 18.21-18.86 23.88-10.19 6.08-22.85 7.89-34.35 5-12.18-3.02-22.66-11.63-28.49-22.68-6.06-11.74-6.43-26.16-1.07-38.24 2.82-6.56 7.68-12.01 13.13-16.52m24.76-3.14c-20.07 1.22-36.85 20.54-35.06 40.57 1.05 10.93 7.25 21.17 15.79 27.94 13.29 9.74 32.97 9.31 45.68-1.23 7.98-7.01 13.34-17.11 14.34-27.71.5-11.36-5.05-22.25-12.99-30.1-7.28-7.04-17.83-9.93-27.76-9.47zm1435.07 22.72c6.69-18.96 27.33-31.68 47.3-28.91 9.55.98 18.22 5.73 25.31 12.04 12.45 11.97 16.84 31.3 10.77 47.47-4.14 11.18-13.01 20.47-24.02 25.03-13.1 5.6-28.85 4.47-41.05-2.84-3.63-2.53-6.98-5.44-9.9-8.75-10.5-11.69-14.02-29.3-8.41-44.04m37.92-22.65c-9.19 1.21-18.33 5.17-24.09 12.68-6.18 6.72-10.02 15.68-9.81 24.88.06 10.78 5.21 21.22 12.97 28.58 13.12 12.4 35.32 12.01 49.03.8 10.22-9.17 16.63-23.84 12.91-37.52-2.32-7.51-6.35-14.66-12.23-19.95-7.63-7.08-18.43-10.7-28.78-9.47z"/><path d="M39.33 591.96c2.05-2.39 4.34-4.56 6.75-6.57C51.9 590.71 57 596.8 63 601.93c5.92-5.22 10.94-11.36 16.96-16.47 2.54 1.99 4.88 4.24 6.92 6.75-5.65 5.35-11.23 10.79-16.19 16.8 5.19 6.14 11.2 11.55 16.29 17.77-2.03 2.32-4.35 4.37-6.99 5.98-5.93-5.26-10.7-11.91-17.23-16.42-6.13 5.04-10.78 11.71-17.24 16.42-2.23-2.07-4.4-4.21-6.25-6.63 5.31-5.75 10.78-11.35 16.16-17.03-5.31-5.76-11.13-11.06-16.1-17.14zm1473.96.04c2.15-2.36 4.47-4.56 6.84-6.69 6.36 4.93 10.65 12.13 17.46 16.54 5.5-5.5 10.77-11.25 16.52-16.52 2.67 1.81 4.86 4.19 6.92 6.66-5.15 5.85-11.35 10.83-16.04 17.03 4.72 6.31 11.12 11.27 15.96 17.55-2.06 2.06-3.92 4.35-6.25 6.1-1.21.51-1.9-1.18-2.69-1.75-4.67-5.21-9.8-9.99-14.85-14.81-5.99 5.36-11.13 11.6-17.19 16.87-2.32-1.89-4.52-3.93-6.61-6.05 4.61-6.56 11.25-11.41 16.09-17.82-5.04-6.04-10.78-11.41-16.16-17.11z"/></g><g fill="#989898"><path d="M158.83 24.7c154.37-.31 308.75-.03 463.12-.13 266.36.01 532.71.02 799.07.01l3.18.52c2.53 1.84 2.7 5 2.62 7.88.03 199.01 0 398.01.02 597.02-.05 1.97-.33 3.95-.66 5.9-3.5.07-6.98.14-10.46.22-.28 2.91-.2 5.91-1.08 8.73-.97 2.24-3.89 2.19-5.9 2.8-111.25.22-222.51.03-333.76.09-242.32.01-484.64-.01-726.96-.01-54.03.25-108.07.16-162.11.19-7.64-.05-15.29.06-22.92-.24-2.46-1.31-5-3.04-5.93-5.81-1.07-3.16-.84-6.56-.91-9.84.03-54.2-.26-108.41.1-162.6.09-9.82.59-19.68-.39-29.45.05-2.35.52-4.66.56-6.99-.08-32 0-64-.03-96-1.41-11.22-.5-22.55-.79-33.83-.35-5.43 1.61-10.77.15-16.15-.05-8.01-.43-16.08.45-24.06-.89-6.61-.84-13.33.07-19.92-1.18-8.3-.39-16.69-.64-25.03-.19-4.04.85-8.01.81-12.05-.09-13.96-.02-27.92-.02-41.88-.03-2.46-.41-4.88-.64-7.31.08-2.92.39-5.82.38-8.73-.18-36.35.08-72.7-.07-109.04.03-4.88-.87-10.37 2.74-14.29m52.58 7.45c.21 46.06-.18 92.12.27 138.17 15.45-.06 30.92-.06 46.38-.06 7.73-.07 15.5 3.35 20.2 9.6 5.22 6.07 6.5 14.4 6.34 22.16.06 120.67.09 241.34-.01 362.01.19 21.96-.29 43.95.31 65.91 36.03.15 72.07.16 108.1.12 291.34-.01 582.69-.05 874.03 0 50.9-.11 101.8.19 152.69-.15.45-34.63.05-69.27.17-103.9.02-113-.04-225.99.01-338.99.08-51.72-.13-103.45.11-155.18-85 .4-170.01.06-255.01.21-186.98.03-373.94-.1-560.91.02-130.89-.03-261.79-.08-392.68.08m-11.73 194.71c-.32 68.71-.03 137.43-.13 206.14.15 1.56-.03 3.21.5 4.72 7.57-.13 15.14-.06 22.71-.07.08-56.58.04-113.17.41-169.72-.82-13.65.71-27.33-.37-40.98-7.69-.47-15.42-.23-23.12-.09z"/><path d="M238.9 57.82c368.05-.17 736.1-.01 1104.16-.08 16.57.13 33.15-.16 49.72.17 0 182.05-.01 364.1 0 546.16-24.23.55-48.5.03-72.75.21-281.34.04-562.68-.04-844.03.01-54.71-.08-109.42.12-164.12-.13-.34-143.36-.08-286.73-.2-430.1-.04-4.74.38-9.68-1.49-14.17-2.46-6.95-8.5-12.45-15.56-14.45-4.15-.94-8.43-.52-12.64-.59-14.34-.03-28.68.06-43.03-.02-.31-29-.15-58.01-.06-87.01m31.5 28.68c-6.19.84-11.35 6.33-11.73 12.59-1.19 7.44 4.65 15.17 12.27 15.63 7.57 1.12 15.09-5.11 15.4-12.75 1.05-8.64-7.24-17.02-15.94-15.47zM43.9 160.57c11.03 5.16 21.96 10.55 33.03 15.62-10.02 11.79-16.24 27.27-15.52 42.86.07 13.95-.04 27.91.12 41.87.04 4.33-.68 8.78.66 13-.6 1.94-.78 3.96-.68 5.99-.07 10.34-.04 20.68-.1 31.02.59-.14 1.79-.42 2.39-.56-.77.44-1.54.87-2.31 1.3-.69 4.77.18 9.58-.05 14.37.09 3.99-.5 8.1.73 11.97-1.47 5-.3 10.25-.87 15.36.86.44 1.72.88 2.59 1.33-.56-.15-1.67-.46-2.23-.61-.19 2.3-.48 4.6-.91 6.88 1.15 4.62.6 9.37.64 14.07.01 25.99.03 51.99-.01 77.98.09 1.85-.05 3.88 1.04 5.5 2.85 4.96 7.05 9.86 12.93 10.96 7.59.31 15.19.02 22.78.09-.1 2.36-.21 4.73-.31 7.1-18.05 7.34-36.24 14.35-54.32 21.59-.15-83.74-.19-167.49-.07-251.23.09-27.98-.14-55.96.2-83.93.07-.63.21-1.9.27-2.53z"/></g><path d="M58.35 31.51c10.45-2.11 21.71.57 30.25 6.92 7.24 5.57 11.96 13.89 14.3 22.63 4.34 18.86-8.8 40.13-27.83 44.21-8.29 2.33-17.2 1.16-25.05-2.16-10.74-4.54-18.16-14.92-21.35-25.87-5.3-19.97 9.33-42.35 29.68-45.73M42.03 51.37c5.01 6.18 11.1 11.4 16.24 17.48-5.47 5.55-10.89 11.14-16.11 16.91 2.01 2.4 4.14 4.73 6.75 6.51 5.73-5.41 10.83-11.49 16.91-16.52 5.82 5.02 10.67 11.05 16.57 15.96 2.97-.58 4.83-3.79 7.02-5.77-4.91-6.34-11.27-11.38-16.37-17.55 5.51-5.48 10.77-11.21 16.4-16.57-1.83-2.8-4.22-5.26-7.17-6.86-5.17 5.79-10.78 11.17-16.46 16.46-6.13-4.94-11.17-11.11-17.06-16.34-2.32 2.01-4.56 4.12-6.72 6.29zm1485.33-19.93c8.32-1.89 16.96.22 24.61 3.6 9.91 4.59 16.44 14.47 19.39 24.72 4.08 13.8-1.94 28.92-12.5 38.13-7.39 6.01-17.04 8.92-26.5 8.66-9.85-.82-19.91-4.89-26.08-12.88-6.33-7.33-10.3-16.89-9.8-26.67.84-16.9 13.94-32.78 30.88-35.56m-10.04 13.61c-2.45 2.1-4.89 4.26-6.81 6.87 5.3 5.68 10.93 11.05 16.37 16.6-4.88 6.32-11.07 11.45-16.3 17.46 2.16 1.99 3.96 5.94 7.2 5.79 6.08-4.74 10.44-11.44 16.76-15.85 5.54 5.46 11.05 10.95 16.53 16.48 2.57-1.9 4.88-4.12 6.88-6.62-5.43-5.65-10.7-11.44-16.28-16.92 4.83-6.28 10.94-11.4 16.29-17.22-1.95-2.44-4.14-4.82-6.9-6.32-6.32 4.56-10.75 11.42-17.02 16.13-5.85-5.19-10.83-11.27-16.72-16.4zM199.68 226.86c7.7-.14 15.43-.38 23.12.09 1.08 13.65-.45 27.33.37 40.98-.37 56.55-.33 113.14-.41 169.72-7.57.01-15.14-.06-22.71.07-.53-1.51-.35-3.16-.5-4.72.1-68.71-.19-137.43.13-206.14zM60.32 571.44c9.93-.46 20.48 2.43 27.76 9.47 7.94 7.85 13.49 18.74 12.99 30.1-1 10.6-6.36 20.7-14.34 27.71-12.71 10.54-32.39 10.97-45.68 1.23-8.54-6.77-14.74-17.01-15.79-27.94-1.79-20.03 14.99-39.35 35.06-40.57m-20.99 20.52c4.97 6.08 10.79 11.38 16.1 17.14-5.38 5.68-10.85 11.28-16.16 17.03 1.85 2.42 4.02 4.56 6.25 6.63 6.46-4.71 11.11-11.38 17.24-16.42 6.53 4.51 11.3 11.16 17.23 16.42 2.64-1.61 4.96-3.66 6.99-5.98-5.09-6.22-11.1-11.63-16.29-17.77 4.96-6.01 10.54-11.45 16.19-16.8-2.04-2.51-4.38-4.76-6.92-6.75-6.02 5.11-11.04 11.25-16.96 16.47-6-5.13-11.1-11.22-16.92-16.54-2.41 2.01-4.7 4.18-6.75 6.57zm1493.98-20.45c10.35-1.23 21.15 2.39 28.78 9.47 5.88 5.29 9.91 12.44 12.23 19.95 3.72 13.68-2.69 28.35-12.91 37.52-13.71 11.21-35.91 11.6-49.03-.8-7.76-7.36-12.91-17.8-12.97-28.58-.21-9.2 3.63-18.16 9.81-24.88 5.76-7.51 14.9-11.47 24.09-12.68M1513.29 592c5.38 5.7 11.12 11.07 16.16 17.11-4.84 6.41-11.48 11.26-16.09 17.82 2.09 2.12 4.29 4.16 6.61 6.05 6.06-5.27 11.2-11.51 17.19-16.87 5.05 4.82 10.18 9.6 14.85 14.81.79.57 1.48 2.26 2.69 1.75 2.33-1.75 4.19-4.04 6.25-6.1-4.84-6.28-11.24-11.24-15.96-17.55 4.69-6.2 10.89-11.18 16.04-17.03-2.06-2.47-4.25-4.85-6.92-6.66-5.75 5.27-11.02 11.02-16.52 16.52-6.81-4.41-11.1-11.61-17.46-16.54-2.37 2.13-4.69 4.33-6.84 6.69z" fill="#71736e"/><path fill="#f1b62a" d="M76.93 176.19c11.49-13.56 29.68-19.44 47.02-19.57 10.61.13 21.22-.12 31.83.14.23 2.43.61 4.85.64 7.31 0 13.96-.07 27.92.02 41.88.04 4.04-1 8.01-.81 12.05.25 8.34-.54 16.73.64 25.03-.91 6.59-.96 13.31-.07 19.92-.88 7.98-.5 16.05-.45 24.06 1.46 5.38-.5 10.72-.15 16.15.29 11.28-.62 22.61.79 33.83.03 32-.05 64 .03 96-.04 2.33-.51 4.64-.56 6.99.98 9.77.48 19.63.39 29.45-19.37.33-38.75.08-58.12.14-7.59-.07-15.19.22-22.78-.09-5.88-1.1-10.08-6-12.93-10.96-1.09-1.62-.95-3.65-1.04-5.5.04-25.99.02-51.99.01-77.98-.04-4.7.51-9.45-.64-14.07.43-2.28.72-4.58.91-6.88.56.15 1.67.46 2.23.61-.87-.45-1.73-.89-2.59-1.33.57-5.11-.6-10.36.87-15.36-1.23-3.87-.64-7.98-.73-11.97.23-4.79-.64-9.6.05-14.37.77-.43 1.54-.86 2.31-1.3-.6.14-1.8.42-2.39.56.06-10.34.03-20.68.1-31.02-.1-2.03.08-4.05.68-5.99-1.34-4.22-.62-8.67-.66-13-.16-13.96-.05-27.92-.12-41.87-.72-15.59 5.5-31.07 15.52-42.86z"/></svg>