<svg width="1344" height="1408" viewBox="0 0 1008 1056" xmlns="http://www.w3.org/2000/svg"><g fill="#000101"><path d="M402.86 21.91c.69-2.21 3.03-3.01 5.16-2.93 57.99.43 116.01 1.19 174.01 1.37 2.26-.02 5.11.01 6.25 2.39 1.68 3.9 2 8.22 3.19 12.27 1.23 5.41 4.15 11.64.56 16.78-2.85.25-5.7.36-8.55.39-.23-5.15-.34-10.31-.3-15.47-2.26-1.91-6.61-2.85-8.18.28-.59 4.92-.24 9.9-.37 14.84-12.24-.21-24.48-.47-36.71-.22-.21-4.58.02-9.16-.19-13.74.2-3.97-6.01-4.6-7.81-1.71-.69 5.09-.14 10.26-.6 15.37-22.39-.35-44.79-.15-67.19-.67-.18-5.11.46-10.34-.65-15.37-1.3-3.01-5.78-2.6-7.72-.45-.93 5.23-.29 10.58-.54 15.87-12.23-.14-24.46-.23-36.69-.37-.3-5.15-.04-10.37-.96-15.46-.87-2.95-5.43-3-7.1-.77-1.13 5.35-.4 10.89-.65 16.32-3.63-.01-7.26-.03-10.88-.2-1.5-4.69.54-9.43 1.82-13.91 1.49-4.83 2.51-9.81 4.1-14.61zM186.75 75.99c.23-.23.69-.7.92-.94-2.23 4.65-1.59 9.94-1.78 14.93.13 7.27-.77 14.97 2.39 21.77 3.22 7.33 9.81 12.2 15.17 17.85 7.47 7.23 14.33 15.06 21.67 22.41 14.82-19.14 29.57-38.34 44.55-57.37 2.83-3.44 5.22-7.42 8.93-10.01 3.75-2.11 8.29-1.5 12.41-1.29 5.81.36 10.26 5.97 10.16 11.62.21 3.37-1.41 6.44-3.33 9.08-17.41 23.34-34.87 46.63-52.35 69.92 3.73 2.74 7.7 5.62 12.48 6.02 7.06.72 14.18.3 21.26.45 10.04-13.02 20.29-25.88 30.15-39.04 13.55-17.13 27.05-34.31 40.32-51.66 3.87-6.49 12.38-6.46 18.93-5.21 6.53 1.74 10.13 9.7 7.83 15.91-1.66 4.32-4.96 7.68-7.67 11.35-10.57 14.09-21.3 28.07-31.75 42.26-6.46 8.66-13.22 17.11-19.27 26.07 12.77.09 25.55.04 38.32.1 23.29-30.36 47.16-60.27 70.52-90.58 3.86-5.52 11.4-5.23 17.33-4.4 7 .98 11.21 9.28 8.8 15.69-1.57 4.3-4.84 7.66-7.49 11.31-54.61 72.01-108.94 144.24-164.53 215.5-22.88 29.49-45.44 59.23-68.45 88.61-2.89 3.62-4.04 8.85-1.58 13.02 3.33 6.54 11.31 9.31 18.27 7.97 5.55-.57 8.25-6.06 11.49-9.87 25.16-32.81 50.77-65.29 76.02-98.03 59.71-76.91 119.7-153.6 179.56-230.39 3.46-4.12 5.99-9.27 10.58-12.29 4.28-1.55 9.03-.99 13.48-.66 4.32.34 7.62 4.06 8.77 8.03 1.25 4.18-.08 8.72-2.55 12.18-3.17 4.49-6.52 8.85-9.81 13.25-42.16 55.51-83.95 111.31-126.75 166.32-25.9 33.73-51.96 67.33-77.97 100.97-8.03 10.65-16.51 20.98-24.13 31.93-3.07 4.03-2.15 10 .88 13.78 5.92 6.94 18.61 8.12 24.3.28 9.89-12.46 19.4-25.21 29.12-37.8 10.77-13.32 21.07-27.01 31.66-40.47 20.81-27.43 42.62-54.1 63.36-81.6 34.82-44.51 69.39-89.22 104.32-133.64 12.01-15.97 24.65-31.44 36.75-47.34 1.81-2.23 3.9-4.72 6.96-5.06 3.28-.51 6.64-.51 9.95-.23 6.46.35 11.8 6.92 10.75 13.33-.63 4.46-3.77 7.93-6.31 11.44-22.1 29.49-44.73 58.57-66.74 88.12-11.87 15.78-24.15 31.25-36 47.05-20.32 26.96-41.33 53.41-61.73 80.31-23.17 30.16-46.66 60.08-69.62 90.38-3.05 3.67-4.17 8.98-1.92 13.34 3.34 6.95 12.17 9.37 19.24 7.66 4.01-1.12 6.55-4.66 9.02-7.75 28.22-37.04 57.05-73.6 85.48-110.47 11.77-14.62 22.81-29.79 34.59-44.39 44.75-57.61 89.77-115 134.33-172.74 3.65-4.36 6.66-9.27 10.77-13.23 3.56-3.34 8.88-2.26 13.32-2.35 7.66-.11 13.4 8.66 10.93 15.73-1.38 3.9-4.21 7.04-6.65 10.31-7.24 9.15-13.93 18.72-21.22 27.84-9.93 14.21-21.04 27.53-30.99 41.73 12.85-1.13 25.73-.07 38.59.08 10.19-13.55 20.8-26.76 31.08-40.24 11.76-15.53 24.2-30.53 35.83-46.15 2.8-3.28 5.54-7.78 10.33-8 4.18-.3 8.52-.44 12.57.82 5.47 2.25 8.1 9.01 6.29 14.52-1.31 3.89-4.27 6.89-6.64 10.15-17.31 22.94-34.31 46.11-51.68 69.01 10.5-.04 21.02.43 31.51-.19 10.36-1.15 17.78-9.23 24.92-16.01 12.33-12.35 25.1-24.25 37.94-36.07 3.34-3.15 6.55-6.66 8.21-11.03 2.58-6.29 2.04-13.24 2.04-19.89-.14-5.99.49-12.01-.43-17.96 8.92-.29 17.87-.25 26.81-.09-.58 8 .01 16.02-.37 24.03-.25 8.47.29 17.3-2.93 25.32-2.22 5.65-7.02 9.61-11.19 13.8-12.8 12.54-26.27 24.4-38.84 37.18-12.24 15.51-23.97 31.43-35.94 47.15-42.03 54.9-84.57 109.41-126.55 164.34-6.86 9.12-14.36 17.77-20.63 27.31-2.7 3.73-2.02 8.87.16 12.66 3.68 5.74 11.39 7.68 17.77 6.27 5.31-1.38 8.21-6.49 11.51-10.42 17.06-21.98 33.96-44.06 51.15-65.93 21.33-27.65 42.72-55.23 64.28-82.69 22.55-29.71 45.91-58.8 68.69-88.34 1.1-1.63 2.6-3.03 4.67-3.18 9.19-1.68 18.95-3.52 26.23-9.84 2.9-3 3.65-7.44 6.57-10.45 3.93-4.47 10.33-5.1 15.9-5.41 14.63-.53 29.27-.29 43.91-.52 6.04-.17 12.22.46 18.15-1.05 3.4-.84 6.12-3.22 8.34-5.82.1 11.9 0 23.8-.17 35.7-1.1.25-2.19.52-3.27.8.34-.12 1.02-.35 1.36-.47l1.32-.46c.11-2.87.04-5.73.03-8.59-3.25.74-6.54 1.4-9.57 2.82-2.61 1.11-5.12 2.86-8.08 2.71-9.02-.02-18.05.36-27.05-.14-3.05-.78-5.26-3.39-8.14-4.59-12.56-6.53-29.8-.76-35.75 12.13-6.13 11.48-2.09 26.79 8.47 34.19 7.37 5.38 17.63 6.53 26.03 2.99 3.53-1.41 6.33-4.78 10.36-4.77 7.01-.19 14.03-.14 21.05-.17 3.03.03 6.25-.2 9.01 1.32 4.49 2.29 9.37 3.63 14.24 4.87-.2 8.23-.08 16.46-.11 24.69l-.09.02c-4.4.78-8.79 1.81-12.75 3.93-5.02 2.72-10.93 1.63-16.38 1.74-5.63-.39-11.29.12-16.9-.42-3.97-1.89-7.41-4.91-11.77-5.97-12.34-3.78-26.68 2.87-31.84 14.68-5.32 11.36-1.42 26.21 9.1 33.16 7.04 4.85 16.29 5.57 24.36 3.28 4.29-1.15 7.38-5.35 12.01-5.32 8.06-.2 16.11.02 24.17-.01 4-.29 7.29 2.27 10.85 3.63 2.76 1.16 5.77 1.52 8.74 1.71.25 8.5-.15 17.01.12 25.51-3.09.64-6.2 1.3-9.12 2.51-3.12 1.23-6.16 3.07-9.64 2.86-6.68.02-13.35-.07-20.03.11-3.44-.03-7.26.59-10.16-1.72-6.28-4.35-14.32-6.5-21.86-4.66-7.85 1.61-14.88 6.83-18.55 13.98-3.11 5.83-3.51 12.84-1.93 19.19 2.17 7.41 7.72 13.66 14.55 17.17 7.47 3.34 16.79 3.69 23.87-.83 2.57-1.4 4.92-3.81 8.07-3.62 8.94.09 17.9-.19 26.83.21 5.92 1.45 11.16 5.38 17.48 5.44.19 10.41-.12 20.82-.11 31.24.49 2.18-2.22 3.66-4.07 3.08l.41-.18.4-.31 1.93-.84c1.7-2.19.57-5.54.77-8.19-5.54 1.16-10.52 3.88-15.79 5.76-9.81.21-19.7.43-29.49-.07-5.71-3.18-11.45-7.31-18.36-6.94-14.05-.55-27.17 11.46-27.57 25.55-.98 13.17 9.69 25.84 22.66 27.64 5.91 1.08 12.24-.08 17.33-3.3 2.35-1.35 4.6-3.38 7.5-3.18 8.35-.11 16.7-.07 25.06-.02 3.8-.22 6.95 2.16 10.33 3.5 2.71 1.21 5.66 1.7 8.59 2.09-.04 8.48-.18 16.96-.05 25.44-7.45-.39-13.44 5.56-20.86 5.1-8.31-.16-16.67.5-24.94-.25-4.08-1.93-7.64-4.97-12.1-6.03-10.73-2.81-22.87 1.58-29.2 10.71-7.34 9.97-6.07 25.06 2.72 33.76 7.3 7.77 19.46 10.57 29.29 6.26 3.22-1.36 5.79-4.05 9.18-5 6.35-.27 12.72.16 19.09.03 4.46.15 9.28-.55 13.34 1.76 3.88 2.03 8.09 3.25 12.32 4.33.4-2.75.74-5.5 1.13-8.25-.47 13.89-.46 27.81-.18 41.71-.15-2.87-.29-5.74-.44-8.6-5.03.32-9.64 2.39-14.21 4.31-3.78 1.6-7.97 1.18-11.96 1.25-5.67-.11-11.35 0-17.01-.26-3.75 0-6.51-2.8-9.7-4.32-5.63-3.12-12.42-3.23-18.56-1.81-7.83 1.88-14.42 7.7-17.86 14.9-3.61 8.23-2.86 18.4 2.36 25.79 6.77 10.23 21.02 14.73 32.31 9.66 3.87-1.48 7.02-5.11 11.45-4.77 8.67.2 17.36-.16 26.02.26 5.6 1.9 11.03 4.41 16.83 5.76.35-2.85.51-5.73.54-8.6-.09 11.02-.33 22.04-.19 33.06-7.88 1.34-15.01 6.23-23.22 5.42-7.64-.31-15.36.53-22.94-.45-4.68-2-8.82-5.47-14.04-6.05-13.75-2.55-28.57 7.22-31.06 21.07-2.63 12.83 5.35 27.08 18.03 30.84 6.57 1.63 14.02 1.72 20-1.85 3.12-1.74 6.16-4.24 9.97-3.8 8.9.2 17.86-.42 26.72.39 5.26 2.17 10.46 4.62 16.16 5.44-.22 8.16-.12 16.34-.1 24.51-5.31 1-10.35 2.94-15.35 4.91-7.73 1.37-15.63.21-23.43.61-3.23.01-6.79.67-9.63-1.25-4.32-2.74-9.06-5.07-14.25-5.37-9.16-.99-18.37 3.58-23.84 10.84-5.65 7.46-6.69 18.13-2.69 26.57 3.58 8.23 11.53 14.52 20.5 15.6 5.58.63 11.51-.12 16.38-3.08 2.72-1.49 5.24-3.9 8.56-3.71 8.02.03 16.05-.13 24.07.14 4.08.07 7.47 2.61 11.26 3.8 2.62.93 5.41 1.17 8.17 1.43-.09 8.39-.1 16.78-.08 25.17-4.94.43-9.58 2.21-14.03 4.26-3.22 1.64-6.9 1.24-10.38 1.23-6.67-.17-13.33-.13-20-.21-2.78.05-4.92-1.96-7.22-3.2-7.53-4.76-17.62-5.29-25.48-1-9.44 4.72-15.37 15.28-14.5 25.81.29 10.94 8.44 20.91 18.8 24.07 6.48 1.63 13.68 1.27 19.61-2.01 3.13-1.53 6-4.24 9.72-3.92 6.37.02 12.74.14 19.11.09 3.14.01 6.44-.25 9.36 1.19 4.68 2.14 9.52 4.31 14.78 4.26.01 7.89-.1 15.78 0 23.67-7.47.12-14.94.05-22.4.08-1.81 2.28-3.36 4.91-5.83 6.56-2.83.27-5.65-.27-8.44-.54-1.48-2.04-2.93-4.08-4.38-6.12-16.78.04-33.56-.06-50.33-.14-.09 14.56.09 29.13 0 43.7-.05 2.46.23 4.92.67 7.35 16.44-.34 32.88.15 49.32-.03 1.82-2.31 3.47-5.16 6.47-6.06 3.11-1.11 7.26-.73 9.19 2.29 1.37 1.42 2.03 4.23 4.49 3.92 6.98.21 13.97.13 20.96.23-.21 9.44-.13 18.9-.3 28.35.01 1.64-.13 3.33.36 4.95 2.53 7.39 2.29 15.33 2.07 23.05-.42 10.83-.94 21.67-1.89 32.48-.68 6.42-3.34 13.25-9.18 16.64-6.87 4.2-15.31 2.72-22.96 3.01-54-.45-108.01-.55-162.01-.79-191.1-.99-382.2-1.95-573.29-2.91-21.57-.23-43.21.19-64.69-2.17-10.14-1.13-20.42-.38-30.52-1.94-9.74-1.86-15.91-11.76-16.01-21.23-.19-12.36-.01-24.73-.04-37.09-.17-7.64 1.25-15.57 5.46-22.06.92-1.13.72-2.62.77-3.94 0-9.04.01-18.08.09-27.12-.11-.86.18-1.54.85-2.05.16 2.8.18 5.62.22 8.44 7.66-.09 15.37.42 23-.2 1.51-1.73 2.5-3.82 3.59-5.81 3.4-.11 6.85-.48 10.22.13 1.97 1.43 3.02 3.73 4.33 5.72 13.68.43 27.36-.01 41.05.25 2.26.11 5.9-.15 5.67-3.26.25-16.17.88-32.36.79-48.54-15.6-.09-31.2.22-46.79-.24-1.5 2.18-2.63 4.82-4.88 6.35-3.1.98-6.42.1-9.6-.02-1.46-1.96-2.82-3.99-4.13-6.05-7.52-.28-15.04-.3-22.56-.46 0 2.51.05 5.03-.09 7.55-.27.24-.79.71-1.05.94-.18-13.08-.19-26.19.08-39.27.21.29.63.89.84 1.19.15 2.39.09 4.79.1 7.19 5.62-.72 10.84-2.87 15.97-5.13 8.9-.74 17.89-.11 26.82-.18 3.93-.35 6.76 2.71 10.05 4.28 7.92 3.94 17.82 3.49 25.41-1.04 7.82-4.59 12.84-13.6 12.52-22.68-.04-7.8-3.02-15.9-9.2-20.9-7.1-6.31-17.75-7.9-26.57-4.62-3.92 1.39-7.01 5.02-11.41 4.91-7.97.05-15.95.05-23.93-.04-3.04.07-5.67-1.59-8.4-2.69-3.49-1.47-7.23-2.13-10.93-2.82-.09 2.72-.18 5.44-.07 8.17l1.27.54c.29.11.86.33 1.14.45-1.19-.3-2.39-.57-3.59-.81 0-11.71.26-23.42.15-35.13-.05-2.16-.05-4.33.51-6.41.32 2.77.52 5.55.75 8.33 4.28-.76 8.52-1.83 12.48-3.65 4.85-2.45 10.4-1.57 15.62-1.68 5.66.22 11.36-.25 17 .38 3.31 1 5.95 3.45 9.14 4.75 8.76 3.7 19.52 2.33 26.95-3.65 10.23-7.93 12.56-23.4 6.17-34.44-5.18-9.11-15.9-14.84-26.4-13.37-5.72.18-10.21 3.99-15.15 6.29-6.54.63-13.15 0-19.71.2-4.15-.14-8.61.71-12.41-1.39-4.28-2.24-9.03-3.25-13.74-4.08 0 2.91 0 5.86-.72 8.72-.86-9.31.2-18.7-.01-28.04.18-4.6-.58-9.23.12-13.8.34 2.58.44 5.19.58 7.8 5.2-.61 10.29-2.18 14.89-4.67 6.38-.81 12.82-.38 19.22-.49 4 .08 8.04-.27 12 .43 3.4 1.36 6.12 4.08 9.66 5.21 9.19 3.14 20.26 1.28 27.21-5.75 10.34-9.51 11.35-27.73 1.12-37.7-6.61-7.56-17.64-10.55-27.18-7.38-4.92.96-8.5 5.65-13.75 5.23-7.99-.01-15.98-.05-23.98-.06-3.31.2-6.17-1.58-9.12-2.76-2.97-1.24-6.14-1.86-9.27-2.5-.14 2.83-.26 5.68-.3 8.53-1.28-.52-.98-1.94-1.01-3.03.31-11.7.09-23.41.13-35.11-.02-1.49.16-2.96.56-4.38.35 2.95.45 5.92.58 8.9 3.38-.81 6.83-1.54 10.01-2.99 2.68-1.16 5.33-2.86 8.37-2.54 8.35.36 16.71.07 25.07.2 3.15-.14 5.44 2.34 8.07 3.68 5.35 3.29 11.94 3.46 18 2.69 10.11-1.51 18.51-9.92 20.76-19.77 1.82-9.14-.85-19.35-7.85-25.71-7.5-7.49-19.63-9.68-29.19-5.06-3.26 1.41-5.95 4.53-9.77 4.25-7.02.09-14.03-.14-21.04.02-3.06.03-6.31.36-9.06-1.26-4.12-2.21-8.69-3.24-13.18-4.33-.09 2.76-.2 5.53-.15 8.3.37.17 1.1.52 1.47.69-.83-.3-1.66-.59-2.49-.88 0-11.56.33-23.12.01-34.68 0-2.36-.25-4.79.56-7.05.64 2.86.6 5.8.58 8.72 5.8-.58 10.9-3.47 16.31-5.26 8.94-.55 17.94-.15 26.9-.1 4.2-.17 7.1 3.32 10.7 4.89 7.85 3.56 17.53 2.88 24.75-1.86 5.73-3.77 10.29-9.63 11.64-16.45 2.46-10.69-2.14-22.61-11.29-28.73-7.06-5.02-16.9-5.91-24.73-2.19-3.93 1.62-7.43 4.89-11.96 4.44-8.69-.2-17.43.24-26.1-.4-5.38-1.62-10.35-4.69-16.12-4.91-.42-8.26-.02-16.53-.1-24.8 1.55-.54 3.1-1.09 4.67-1.57 5.38-.97 9.99-4.73 15.58-4.65 7.68-.08 15.36.1 23.04.24 4.68-.06 7.86 4.06 12.09 5.47 12.16 5.26 27.39-1 32.96-12.85 6.47-12.57 1.2-30.15-11.7-36.36-7.53-3.83-16.87-3.64-24.27.43-2.91 1.44-5.54 4-9.03 3.71-8.05.01-16.1-.02-24.14-.1-2.92.07-5.46-1.5-8.06-2.58-3.36-1.54-7-2.3-10.58-3.1-.02 2.3-.04 4.61.01 6.92-.08.61-.23 1.85-.31 2.46-1.25-3.33-.54-6.94-.69-10.4.31-10.88-.11-21.76.22-32.62l.91.21c-.26 2.63-.33 5.27-.34 7.91 3.34-.6 6.73-1.19 9.83-2.61 2.6-1.08 5.09-2.81 8.03-2.7 7.03-.04 14.06.18 21.09.08 3.32.01 7.03-.44 9.69 1.99 6.83 5.45 16.35 6.59 24.55 4 9.68-3.58 17.26-12.9 17.87-23.33.99-11.45-6.11-23.1-16.87-27.23-6.46-2.35-13.95-2.83-20.2.41-3.73 1.48-6.81 4.95-11.1 4.58-8.02 0-16.03-.05-24.04-.01-3.48.31-6.35-1.84-9.38-3.14-2.88-1.32-6-1.96-9.07-2.67.12 2.88-.85 6.12.84 8.69l.41.22c-.56-.1-1.69-.31-2.26-.41.24-12.46.43-24.92.14-37.37.1-1.71-.3-3.6.72-5.09.15 2.83.13 5.67.15 8.51 5.53-.62 10.41-3.38 15.61-5.07 8.95-.54 17.96-.07 26.93-.15 3.43-.2 6.07 2.23 8.9 3.75 5.6 3.41 12.55 4.02 18.89 2.72 9.82-2.08 18.01-10.36 20.01-20.19 1.1-6.31.66-13.12-2.53-18.8-4.05-7.94-12.52-13.1-21.29-13.93-6.71-.6-13.34 1.73-18.86 5.44-2.07 1.59-4.76 1.21-7.2 1.24-6.99-.13-13.97-.18-20.96-.08-4.64.36-8.27-3.14-12.65-4.02-1.98-.52-4.01-.74-6.03-1.02-.57 2.87-.64 5.79.04 8.66-2.6-1.89-1.23-5.24-1.24-7.88.06-9.19.04-18.38.11-27.57 1.25.03 2.5.04 3.75.01 5.98-.59 10.82-5.26 16.95-4.91 8.06.16 16.14.01 24.18.59 3.04.1 5.12 2.66 7.69 3.94 6.65 3.53 14.79 3.7 21.84 1.27 7.09-2.42 12.8-8.23 15.44-15.2.4 12.93.52 25.87.76 38.8 6.63-8.13 12.67-16.72 19.08-25.02 10.76-13.98 21.4-28.04 32.04-42.11 3.21-4.22 6.73-8.22 9.55-12.74-11.69-11.56-23.27-23.23-34.18-35.53-4.97-5.75-11.24-11.24-12.72-19.05-.91-6.46-.68-13.02-.79-19.53-.19-7.3 1.41-14.62.13-21.89 8.26-.09 16.55.29 24.8-.18M599.13 213.1c-28.72 37.92-57.82 75.55-86.97 113.14-20.9 27.65-42.55 54.74-63.48 82.38-3.25 4.16-6.77 8.2-9.08 12.98-2.43 5.02-.27 11.45 4.17 14.61 4 3.09 9.44 3.59 14.3 2.85 5.7-1.3 8.65-6.83 12.02-11.05 16.06-20.31 31.66-40.96 47.71-61.27 41.89-54.26 84.17-108.24 126.12-162.46-7.3-.24-14.62.08-21.9-.53-1.95-.12-4.03-1.09-4.69-3.05-1.22-3.51-.84-7.29-.84-10.93-6.33 7.35-11.35 15.72-17.36 23.33m-402.84 25.19c-10.32 13.33-20.85 26.53-30.74 40.19-.83 1.34-.55 3.03-.69 4.54-.04 14.67-.15 29.35-.14 44.02 2.24-2.27 4.07-4.89 5.95-7.45 30.57-39.69 61.85-78.82 92.04-118.78-5.52-.21-11.09-.12-16.55-1.11-5.77-1.17-11.28-3.43-16.33-6.44-10.78 15.31-22.38 30.01-33.54 45.03m104.38-36.88c-24 32.59-49.25 64.24-73.55 96.6-20.77 26.65-41.51 53.32-61.96 80.21-.92 1.04-.73 2.47-.8 3.74.01 14.74-.2 29.48-.22 44.22 6.01-6.72 11.01-14.27 16.76-21.22 10.72-13.96 21.77-27.68 32.27-41.81 6.33-7.98 12.95-15.74 18.95-23.97 25.55-33.14 51.44-66.02 77.06-99.1 9.85-13 20.31-25.53 29.95-38.69-12.82 0-25.65-.14-38.46.02M602.26 309.2c-22.54 28.54-44.33 57.67-66.79 86.27-6.16 8.47-13.39 16.17-18.77 25.2-2.84 4.57-1.71 10.95 2.06 14.66 3.95 4.24 10.36 5.14 15.81 4.05 3.88-.84 6.59-3.94 8.95-6.91 14.12-18.49 28.66-36.67 42.75-55.18 22.4-28.31 44.16-57.11 66.5-85.47 22.52-28.99 45.04-57.98 67.52-87-12.74-.12-25.49-.44-38.23-.34-26.15 35.25-53.18 69.83-79.8 104.72m210.59-74.28c-45.92 60.34-92.7 120.02-138.71 180.29-3.17 3.93-7.16 8.36-6.15 13.84.96 9.19 12.03 13.75 20.13 11.28 6.18-2.13 9.09-8.48 13.08-13.15 38.52-49.47 76.99-98.99 115.33-148.62 1.11-1.7 2.92-3.29 2.86-5.47-.06-15.48.08-30.96.01-46.43-2.49 2.51-4.39 5.48-6.55 8.26M754.67 410.6c-2.82 3.86-6.03 7.44-8.53 11.53-3.49 5.69-1.12 13.86 4.67 17.07 4.46 2.38 10.06 3.29 14.83 1.28 4-1.73 6.56-5.4 9.12-8.74 14.53-19.07 29.48-37.85 43.82-57.04.55-15.96.31-32 .16-47.99-21.44 27.9-42.97 55.73-64.07 83.89m-563.26 58.51c.13 40.34-.33 80.69-.53 121.04-.47 2.01 2 1.29 3.09 1.47 29.05-.25 58.09.65 87.15.46-.15-7.23.2-14.47-.22-21.69-21.46.11-42.91-.22-64.37-.04-.43-7.45 0-14.9-.1-22.35.22-26.33.23-52.66.34-78.99-8.46.43-16.92-.36-25.36.1m109.65 123.05c8.49.14 16.98-.03 25.46.35.52-9.16.1-18.35.23-27.52.02-31 .03-62 .12-93-.1-1.27.35-3.64-1.75-3.28-7.86-.25-15.74-.06-23.61-.3-.46 41.25-.21 82.5-.45 123.75m282.57-108.52c-12.11 12.16-17.61 29.5-18.15 46.36-.34 17.51 4.67 35.73 16.68 48.85 10.92 11.62 27.13 17.11 42.86 16.96 18.7.79 37.42-6.2 51.49-18.44.38-16.53.61-33.06.64-49.6-17.15-.11-34.3-.42-51.45-.3-.13 6.93-.26 13.86-.08 20.79 8.96.22 17.94-.07 26.9.31-.22 5.17.21 10.35-.18 15.51.01 1.46-1.82 1.76-2.71 2.58-7.62 4.87-16.62 7.56-25.66 7.62-9.05-.28-18.58-3.69-24.22-11.08-6.39-7.9-8.31-18.36-8.75-28.25.04-9.08.43-18.47 3.99-26.95 3.94-8.88 12.33-15.88 22.07-17.24 9.12-1.46 19.44-.78 26.7 5.56 4.42 3.38 6.38 8.68 8.77 13.48 7.62-2.39 15.6-3.26 23.39-4.94-2.22-12.37-9.98-23.79-21.18-29.66-11.54-6-24.99-7.23-37.78-6.11-12.29 1.02-24.33 6.05-33.33 14.55m-232.75-13.41c-.43 40.75-.67 81.51-.69 122.27 17.95.06 35.89.19 53.84.3 11.92-.08 23.83.8 35.74.12-.04-7.14.03-14.28-.03-21.41-21.44-.15-42.9 0-64.33-.51.17-33.55.5-67.1.34-100.66-8.29-.02-16.59.13-24.87-.11m96.01-.49c12.41 20.65 24.94 41.23 37.8 61.61 1.96 3.48 4.77 6.66 5.6 10.65.25 17.16-.09 34.34.19 51.51 8.31-.09 16.61 0 24.92-.03.23-16.51.33-33.02.22-49.53-.27-2.26 1.06-4.16 2.18-5.97 13.95-22.41 27.82-44.86 41.71-67.3-9.39-.48-18.8-.29-28.2-.36-8.75 16.07-18.38 31.63-27.31 47.59-5.59-8.82-10.68-17.96-16.14-26.86-4.29-6.9-7.41-14.45-11.88-21.24-9.7.05-19.4-.15-29.09-.07m286.3.46c-8.08 1.45-16.04 4.34-22.73 9.15-6.18 4.85-11.73 10.72-15.3 17.78-7.14 14.11-9.08 30.38-7.59 46 1.53 11.95 5.11 24.04 12.8 33.54 10.34 13.09 27.24 19.78 43.66 19.88 13.87.43 28.44-3.22 38.96-12.65 11.56-9.93 18.17-24.76 19.61-39.78 1.08-11.71 1-23.79-2.44-35.13-3.34-11.81-10.91-22.25-20.6-29.68-13.32-9.38-30.57-11.4-46.37-9.11M210.88 626.94c-5.16 4.58-8.88 10.46-13.2 15.78-11.04 13.95-21.85 28.08-33.1 41.86-1.97 1.98-1.5 4.94-1.69 7.48 0 12.25-.39 24.5-.09 36.75 3.61-3.43 6.37-7.61 9.47-11.48 18.09-22.95 36.24-45.86 54.4-68.76 3.02-3.8 4.69-8.8 3.36-13.61-1.36-8.33-12.33-12.7-19.15-8.02m73.21 3.07c-17.14 21.24-33.64 43-50.78 64.25-23.45 29.58-46.81 59.25-70.33 88.77-.69 1.18-.34 2.66-.48 3.98.04 12.74-.26 25.49-.15 38.23 2.55-2.43 4.69-5.24 6.88-7.98 43.59-55.1 87.33-110.06 130.89-165.18 2.96-3.82 6.08-8.04 6.28-13.05.48-7.22-6.16-13.96-13.36-13.67-3.5.04-6.81 1.94-8.95 4.65m76.53-.39c-17.47 21.54-34.23 43.66-51.52 65.36-23.44 29.6-46.94 59.15-70.32 88.8-24.04 29.65-47.23 59.98-71.28 89.62-1.9 2.65-5.09 4.92-5.01 8.51-.48 8.85.26 17.78-1.14 26.58-.94 5.24-3.29 10.07-5.45 14.89 2.62-1.16 5.39-2.05 7.84-3.56 2.93-2.48 4.88-5.86 7.29-8.8 11.22-14.14 22.31-28.38 33.61-42.45 24.34-29.71 47.46-60.39 71.75-90.13 34.05-42.97 68.14-85.9 101.96-129.06 3.44-3.92 4.23-9.48 3.1-14.44-2.37-8.37-14.89-12.27-20.83-5.32m81.18-2.84c-3.31 1.03-5.57 3.81-7.63 6.43-16.41 20.58-32.81 41.16-48.97 61.93-14.43 18.58-29.38 36.75-43.79 55.34-20.49 25.49-40.5 51.37-61.15 76.73-24.86 31.75-50.04 63.24-75.17 94.78-17.57 22.5-35.51 44.72-53.32 67.02 9.03 2.71 17.92 5.93 27.06 8.23 9.14-11.97 18.69-23.61 27.98-35.47 46.11-57.86 92.12-115.8 138.11-173.75 22.53-28.18 44.62-56.72 67.28-84.8 11.85-15.14 23.64-30.33 35.83-45.2 3.41-4.58 7.39-8.91 9.53-14.28.79-3.65.6-7.77-1.25-11.09-2.95-4.69-9.07-7.57-14.51-5.87m68.81 5.83c-24.15 31.17-48.94 61.83-73.23 92.89-23.5 29.46-47 58.93-70.25 88.59-20.08 25.25-40.35 50.37-60.22 75.8-19.63 24.72-39.43 49.32-58.8 74.26-9.95 12.69-20.5 24.94-30.03 37.95 10.95.18 21.89.01 32.84.11 15.62-20.12 31.86-39.73 47.57-59.77 20.37-25.62 40.78-51.21 61.11-76.85 9.3-12.34 19.48-23.99 28.69-36.4 13.9-17.36 27.73-34.79 41.59-52.19 21.74-27.93 44.16-55.33 65.8-83.34 11.15-13.87 22.2-27.8 33.34-41.68 2.86-3.69 5.58-8.1 5.01-12.98-.4-6.95-7.18-12.7-14.1-11.89-3.82.16-7.12 2.51-9.32 5.5m83.23-4.94c-5.48 1.26-8.27 6.58-11.63 10.56-30.83 40.33-63.08 79.55-94.14 119.71-24.16 29.59-47.56 59.8-71.44 89.62-18.46 22.96-36.51 46.24-54.93 69.23-18.72 23.54-37.48 47.06-56.04 70.73-3.84 5-8.22 9.58-11.74 14.82 11.01.12 22.02.28 33.03.12 30.13-37.75 59.96-75.74 90.11-113.48 41.15-51.53 81.74-103.49 123.08-154.86 12.4-15.58 24.43-31.45 37.06-46.84 7.14-9.49 15.1-18.33 22.14-27.9 3.34-4.74 8.05-8.73 9.93-14.37 1.29-4.56.75-10.12-2.83-13.53-3.29-3.11-8.07-5.28-12.6-3.81m74.45.82c-3.09 1.28-5.11 4.09-7.17 6.59-9.12 11.55-18.11 23.21-27.35 34.67-23.91 31.03-48.86 61.23-72.79 92.24-26.38 32.66-52.36 65.65-78.32 98.65-20.16 24.89-39.84 50.15-59.82 75.18-17.84 22.26-35.56 44.62-53.08 67.12 10.45-.08 20.9-.06 31.34-.04 1.95.27 2.85-1.75 4-2.91 59.5-75.08 119.29-149.94 178.72-225.09 16.79-20.97 33.48-42.01 50.01-63.18 9.78-12.24 19.8-24.28 29.28-36.75 6.64-8.6 13.7-16.87 20.15-25.61 1.76-2.4 2.57-5.4 2.51-8.36.45-8.54-9.51-15.92-17.48-12.51m67.68 8.45c-11.66 14.72-23.25 29.49-35.05 44.09-19.18 24.4-38.32 48.84-57.83 72.98-36.11 45.91-72.66 91.46-108.78 137.36-12.72 15.95-25.53 31.83-38.03 47.96-16.93 21.31-34.12 42.43-50.73 63.99 9.8.11 19.61-.14 29.41.14 1.47-.2 3.52.56 4.51-.95 5.88-7.73 11.91-15.35 17.94-22.97 29.57-36.88 58.83-74 88.28-110.97 18.24-22.75 36.06-45.83 54.35-68.54 37.99-47.69 75.71-95.6 113.73-143.27 3.5-4.68 8.31-9.45 7.98-15.76-.02-7.77-8.04-14.54-15.73-12.59-4.65.88-7.4 5.02-10.05 8.53m71.29 6.33c-19.66 24.98-39.58 49.74-59.32 74.65-15.36 19.89-31.35 39.27-46.78 59.12-14.52 18.22-28.96 36.5-43.4 54.79-16.49 20.2-32.44 40.83-48.6 61.3-13.22 16.41-26.27 32.95-39.45 49.37-15.81 20.49-32.48 40.32-47.88 61.11 10.98.01 21.96.22 32.94.03 10.88-14.34 22.27-28.3 33.47-42.4 37.09-46.65 74.14-93.32 111.01-140.14 16.89-20.75 33.44-41.77 49.94-62.82 22.85-28.17 45.1-56.82 67.67-85.21-.36-14 .59-27.99.2-41.98-3.73 3.68-6.55 8.11-9.8 12.18M756.1 803.96c-28.19 35.53-56.65 70.85-84.58 106.6-13.94 17.42-27.99 34.75-41.76 52.3-10.62 13.76-21.74 27.13-32.15 41.04 10.83.05 21.66.32 32.5.2 12.06-14.96 24.21-29.85 36.01-45.01 22.12-27.89 44.31-55.7 66.47-83.55 27.77-35.29 56.01-70.21 83.69-105.57-.15-14.01.23-28.03.18-42.04-20.22 25.25-40.29 50.65-60.36 76.03m50.85 31.95c-20.65 26.05-41.38 52.02-62.06 78.03-13.09 17.14-27.07 33.58-40.21 50.67-10.5 13.21-20.96 26.46-31.38 39.75 10.92-.06 21.85.01 32.77.2 14.12-17.07 27.6-34.67 41.44-51.99 22.99-28.1 45.11-56.9 67.76-85.27.74-1.28.32-2.9.49-4.29.06-12.78.12-25.55.25-38.32-3.29 3.51-5.95 7.55-9.06 11.22m-.72 97.26c-18.91 23.98-38.47 47.48-56.97 71.78 10.97-.12 21.95-.37 32.92 0 6.21-7.4 11.91-15.23 17.98-22.76 11.04-13.37 21.37-27.3 32.61-40.51-3.57-2.89-7.54-5.46-10.13-9.35-2.84-3.61-4.02-8.1-5.74-12.26-4.01 3.96-7 8.83-10.67 13.1m-717.79 8.29c-5.35 1.22-10.37 3.85-14.38 7.6-9.48 8.47-12.13 23.17-6.75 34.6 5.98 13.46 22.87 21.12 36.76 15.64 14.72-4.42 23.67-21.8 19.09-36.39-3.63-14.71-19.85-25.14-34.72-21.45m792.85 5.9c-16.56 2.39-28.57 20.53-24.22 36.69 1.83 8.93 8.29 16.41 16.31 20.48 7.38 3.24 16.14 3.85 23.66.73 12.19-5.28 21.72-18.59 19.16-32.23-1.99-16.12-18.7-29.38-34.91-25.67zM96.64 87.68c1.34-4.89 9.74-4.66 10.63.36.1 4.95-.77 9.86-.94 14.8 4.6.72 9.37.6 13.85 1.98 4.9 1.2 4.8 9.69-.22 10.55-4.92.55-9.85-.46-14.78-.44-.51 4.61-.59 9.29-1.6 13.83-1.15 4.9-9.36 4.54-10.91.18-.63-5.04.89-10.05.72-15.11-4.41-1.07-9.03-.71-13.44-1.68-5.59-1.38-4.55-11.01 1.06-11.31 4.62-.06 9.17.98 13.79 1.09.82-4.72.54-9.62 1.84-14.25z"/><path d="M887.51 96.69c1.12-4.98 9.93-4.88 10.66.25.49 4.99-.79 9.95-.89 14.93 4.44.8 9.01.57 13.41 1.56 5.43 1 4.75 10.5-.7 10.89-4.72.46-9.41-.65-14.12-.59-.76 4.73-.51 9.61-1.73 14.25-1.75 4.89-10.3 4.36-11.2-.85-.33-4.88.96-9.69 1.51-14.51-5.01-1.4-10.42-.74-15.28-2.68-3.8-2.58-2.75-9.65 1.89-10.62 5.04-.53 9.96 1.73 15.01.97.28-4.54.27-9.17 1.44-13.6zM58.6 143.63c4.23 4.62 10.29 7.1 16.46 7.57 16.9 1.77 33.94.96 50.88 1.68 6.79.19 12.85 3.95 17.68 8.45 3.42 3.23 3.84 8.26 4.03 12.69.06 6.19.3 12.39.16 18.59-3.05-6.75-8.85-12.23-15.84-14.71-7.21-2.15-15.47-1.94-22.03 2.04-2.56 1.33-4.89 3.61-7.96 3.47-5.99.12-11.98-.15-17.96-.12-4.23-.06-8.73.47-12.58-1.67-4.1-2.14-8.54-3.54-13.12-4.15.36-11.28.09-22.56.28-33.84zM737.42 491.59c8.65-1.78 18.18-.8 25.58 4.33 9.21 5.7 13.27 16.67 14.55 26.95.77 10.78.79 22.02-3.44 32.16-3.59 9.15-11.41 16.84-21.17 18.98-8.41 1.75-17.62.56-25-3.99-6.2-3.82-10.28-10.3-12.63-17.06-3.16-9.13-3.37-18.96-2.59-28.49.8-7.11 2.51-14.32 6.55-20.33 4.05-6.4 10.76-10.94 18.15-12.55zM103.95 951.87c1.56-1.47 3.82-.2 5.24.86 1.76 1.5 3.76 3.52 3.53 6.04-2.38 4.35-6.4 7.5-9.42 11.39 3.1 4.06 7.57 6.82 10.6 10.91.66 3.54-2.9 6.7-5.86 8.13-5.47-1.01-8.28-6.72-13.01-9.09-4.31 2.52-6.34 7.6-10.4 10.47-2.23.66-4.22-1.15-5.89-2.36-1.54-1.38-3.44-3.65-2.33-5.79 2.67-4.09 7.06-6.83 9.29-11.24-3.06-4.28-8.28-6.6-10.88-11.25.81-2.84 2.84-5.29 5.21-7 1.12-.9 2.65-.61 3.65.33 3.61 2.75 6.72 6.1 10.32 8.88 3.43-3.32 6.35-7.14 9.95-10.28zM874.11 958.09c2.13-2.5 5.57-3.46 8.72-3.89 4.62 3.49 4.17 10.27 7.2 14.93 4.44-1.08 8.5-3.36 12.99-4.27 3.52-.7 4.74 3.28 5.38 5.92.18 1.31.86 3.21-.52 4.11-4.1 2.74-9.07 3.67-13.44 5.88 1.25 4.51 3.31 8.77 4.35 13.34.92 2.94-2.57 4.2-4.69 5.01-2 .6-5.18 1.46-6.14-1.08-2.04-4.2-3.14-8.77-5.15-12.97-4.91 1.32-9.48 4.03-14.56 4.57-3.63-1.4-3.79-6.27-4.33-9.58 4.45-3.14 9.84-4.34 14.63-6.81-1.47-5.04-4.14-9.85-4.44-15.16z"/></g><path fill="#a5a5a5" d="M408.47 34.31c1.67-2.23 6.23-2.18 7.1.77.92 5.09.66 10.31.96 15.46 12.23.14 24.46.23 36.69.37.25-5.29-.39-10.64.54-15.87 1.94-2.15 6.42-2.56 7.72.45 1.11 5.03.47 10.26.65 15.37 22.4.52 44.8.32 67.19.67.46-5.11-.09-10.28.6-15.37 1.8-2.89 8.01-2.26 7.81 1.71.21 4.58-.02 9.16.19 13.74 12.23-.25 24.47.01 36.71.22.13-4.94-.22-9.92.37-14.84 1.57-3.13 5.92-2.19 8.18-.28-.04 5.16.07 10.32.3 15.47 2.85-.03 5.7-.14 8.55-.39 11.02-.72 22.1.18 33.03 1.64 2.16.47 4.67.51 6.42 2.06.76 5.03.35 10.23-.97 15.14-90.52-1.04-181.04-1.87-271.56-3.09.01-3.85-.48-7.72 0-11.54 1.44-3.02 5.41-2.61 8.17-3.2 9.91-.97 19.84-2.72 29.82-2.37 3.62.17 7.25.19 10.88.2.25-5.43-.48-10.97.65-16.32z"/><g fill="#5d5d5d"><path d="M67.06 63.59c6.2-1.55 12.66-.71 18.98-.77 20.68 1.03 41.39 1.24 62.06 2.38 6.36.14 12.32 4.78 13.85 10.97 1.28 7.27-.32 14.59-.13 21.89.11 6.51-.12 13.07.79 19.53 1.48 7.81 7.75 13.3 12.72 19.05 10.91 12.3 22.49 23.97 34.18 35.53-2.82 4.52-6.34 8.52-9.55 12.74-10.64 14.07-21.28 28.13-32.04 42.11-6.41 8.3-12.45 16.89-19.08 25.02-.24-12.93-.36-25.87-.76-38.8-.42-6.87-.33-13.75-.27-20.63.14-6.2-.1-12.4-.16-18.59-.19-4.43-.61-9.46-4.03-12.69-4.83-4.5-10.89-8.26-17.68-8.45-16.94-.72-33.98.09-50.88-1.68-6.17-.47-12.23-2.95-16.46-7.57-5.8-7.56-5.57-17.57-5.17-26.61.2-12.69.69-25.37 1.45-38.03.4-6.92 5.06-14.05 12.18-15.4m28.38 14c-9.08 1.25-17.47 6.79-22.25 14.61-5.16 7.92-5.58 18.24-2.52 27.02 2.54 7.43 8.51 13.21 15.27 16.93 11.91 6.12 27.59 3.36 36.63-6.54 10.74-10.71 11.04-29.25 1.71-40.93-6.74-8.48-18.18-12.7-28.84-11.09z"/><path d="M187.67 75.05c2.78-6.13 9.71-9.69 16.29-9.4 30.33.51 60.65 1 90.99 1.13 21.32.59 42.66.61 64 .76 90.52 1.22 181.04 2.05 271.56 3.09 23.83.12 47.66.7 71.5.74 26.66.04 53.31.94 79.96.9 4.7-.01 9.61-.08 13.97 1.92 3.34 1.4 5.48 4.62 6.82 7.85.92 5.95.29 11.97.43 17.96 0 6.65.54 13.6-2.04 19.89-1.66 4.37-4.87 7.88-8.21 11.03-12.84 11.82-25.61 23.72-37.94 36.07-7.14 6.78-14.56 14.86-24.92 16.01-10.49.62-21.01.15-31.51.19 17.37-22.9 34.37-46.07 51.68-69.01 2.37-3.26 5.33-6.26 6.64-10.15 1.81-5.51-.82-12.27-6.29-14.52-4.05-1.26-8.39-1.12-12.57-.82-4.79.22-7.53 4.72-10.33 8-11.63 15.62-24.07 30.62-35.83 46.15-10.28 13.48-20.89 26.69-31.08 40.24-12.86-.15-25.74-1.21-38.59-.08 9.95-14.2 21.06-27.52 30.99-41.73 7.29-9.12 13.98-18.69 21.22-27.84 2.44-3.27 5.27-6.41 6.65-10.31 2.47-7.07-3.27-15.84-10.93-15.73-4.44.09-9.76-.99-13.32 2.35-4.11 3.96-7.12 8.87-10.77 13.23-44.56 57.74-89.58 115.13-134.33 172.74-11.78 14.6-22.82 29.77-34.59 44.39-28.43 36.87-57.26 73.43-85.48 110.47-2.47 3.09-5.01 6.63-9.02 7.75-7.07 1.71-15.9-.71-19.24-7.66-2.25-4.36-1.13-9.67 1.92-13.34 22.96-30.3 46.45-60.22 69.62-90.38 20.4-26.9 41.41-53.35 61.73-80.31 11.85-15.8 24.13-31.27 36-47.05 22.01-29.55 44.64-58.63 66.74-88.12 2.54-3.51 5.68-6.98 6.31-11.44 1.05-6.41-4.29-12.98-10.75-13.33-3.31-.28-6.67-.28-9.95.23-3.06.34-5.15 2.83-6.96 5.06-12.1 15.9-24.74 31.37-36.75 47.34-34.93 44.42-69.5 89.13-104.32 133.64-20.74 27.5-42.55 54.17-63.36 81.6-10.59 13.46-20.89 27.15-31.66 40.47-9.72 12.59-19.23 25.34-29.12 37.8-5.69 7.84-18.38 6.66-24.3-.28-3.03-3.78-3.95-9.75-.88-13.78 7.62-10.95 16.1-21.28 24.13-31.93 26.01-33.64 52.07-67.24 77.97-100.97 42.8-55.01 84.59-110.81 126.75-166.32 3.29-4.4 6.64-8.76 9.81-13.25 2.47-3.46 3.8-8 2.55-12.18-1.15-3.97-4.45-7.69-8.77-8.03-4.45-.33-9.2-.89-13.48.66-4.59 3.02-7.12 8.17-10.58 12.29-59.86 76.79-119.85 153.48-179.56 230.39-25.25 32.74-50.86 65.22-76.02 98.03-3.24 3.81-5.94 9.3-11.49 9.87-6.96 1.34-14.94-1.43-18.27-7.97-2.46-4.17-1.31-9.4 1.58-13.02 23.01-29.38 45.57-59.12 68.45-88.61 55.59-71.26 109.92-143.49 164.53-215.5 2.65-3.65 5.92-7.01 7.49-11.31 2.41-6.41-1.8-14.71-8.8-15.69-5.93-.83-13.47-1.12-17.33 4.4-23.36 30.31-47.23 60.22-70.52 90.58-12.77-.06-25.55-.01-38.32-.1 6.05-8.96 12.81-17.41 19.27-26.07 10.45-14.19 21.18-28.17 31.75-42.26 2.71-3.67 6.01-7.03 7.67-11.35 2.3-6.21-1.3-14.17-7.83-15.91-6.55-1.25-15.06-1.28-18.93 5.21-13.27 17.35-26.77 34.53-40.32 51.66-9.86 13.16-20.11 26.02-30.15 39.04-7.08-.15-14.2.27-21.26-.45-4.78-.4-8.75-3.28-12.48-6.02 17.48-23.29 34.94-46.58 52.35-69.92 1.92-2.64 3.54-5.71 3.33-9.08.1-5.65-4.35-11.26-10.16-11.62-4.12-.21-8.66-.82-12.41 1.29-3.71 2.59-6.1 6.57-8.93 10.01-14.98 19.03-29.73 38.23-44.55 57.37-7.34-7.35-14.2-15.18-21.67-22.41-5.36-5.65-11.95-10.52-15.17-17.85-3.16-6.8-2.26-14.5-2.39-21.77.19-4.99-.45-10.28 1.78-14.93z"/><path d="M837.92 73.08c5.8-2.17 12.04-.83 18.05-.95 11.35-.06 22.68.47 34.03.44 10.38.08 20.78.1 31.14.86 4.89.47 9.4 3.47 11.61 7.89 4 6.88 2.68 15.09 2.8 22.67-.25 13-.18 26.02-.77 39.01-.06 4.76-1.62 9.45-4.33 13.36-2.22 2.6-4.94 4.98-8.34 5.82-5.93 1.51-12.11.88-18.15 1.05-14.64.23-29.28-.01-43.91.52-5.57.31-11.97.94-15.9 5.41-2.92 3.01-3.67 7.45-6.57 10.45-7.28 6.32-17.04 8.16-26.23 9.84-2.07.15-3.57 1.55-4.67 3.18-22.78 29.54-46.14 58.63-68.69 88.34-21.56 27.46-42.95 55.04-64.28 82.69-17.19 21.87-34.09 43.95-51.15 65.93-3.3 3.93-6.2 9.04-11.51 10.42-6.38 1.41-14.09-.53-17.77-6.27-2.18-3.79-2.86-8.93-.16-12.66 6.27-9.54 13.77-18.19 20.63-27.31 41.98-54.93 84.52-109.44 126.55-164.34 11.97-15.72 23.7-31.64 35.94-47.15 12.57-12.78 26.04-24.64 38.84-37.18 4.17-4.19 8.97-8.15 11.19-13.8 3.22-8.02 2.68-16.85 2.93-25.32.38-8.01-.21-16.03.37-24.03 1.42-3.86 4.04-7.94 8.35-8.87m46.46 13.34c-13.84 2.61-24.41 15.68-24.81 29.63-.73 12.23 7 24.33 18.06 29.36 6.39 2.62 13.65 3.66 20.41 1.83 7.73-1.74 14.33-6.98 18.76-13.43 5.15-7.57 6.25-17.51 3.55-26.18-4.48-14.67-20.84-24.75-35.97-21.21zM599.13 213.1c6.01-7.61 11.03-15.98 17.36-23.33 0 3.64-.38 7.42.84 10.93.66 1.96 2.74 2.93 4.69 3.05 7.28.61 14.6.29 21.9.53-41.95 54.22-84.23 108.2-126.12 162.46-16.05 20.31-31.65 40.96-47.71 61.27-3.37 4.22-6.32 9.75-12.02 11.05-4.86.74-10.3.24-14.3-2.85-4.44-3.16-6.6-9.59-4.17-14.61 2.31-4.78 5.83-8.82 9.08-12.98 20.93-27.64 42.58-54.73 63.48-82.38 29.15-37.59 58.25-75.22 86.97-113.14zM196.29 238.29c11.16-15.02 22.76-29.72 33.54-45.03 5.05 3.01 10.56 5.27 16.33 6.44 5.46.99 11.03.9 16.55 1.11-30.19 39.96-61.47 79.09-92.04 118.78-1.88 2.56-3.71 5.18-5.95 7.45-.01-14.67.1-29.35.14-44.02.14-1.51-.14-3.2.69-4.54 9.89-13.66 20.42-26.86 30.74-40.19zM300.67 201.41c12.81-.16 25.64-.02 38.46-.02-9.64 13.16-20.1 25.69-29.95 38.69-25.62 33.08-51.51 65.96-77.06 99.1-6 8.23-12.62 15.99-18.95 23.97-10.5 14.13-21.55 27.85-32.27 41.81-5.75 6.95-10.75 14.5-16.76 21.22.02-14.74.23-29.48.22-44.22.07-1.27-.12-2.7.8-3.74 20.45-26.89 41.19-53.56 61.96-80.21 24.3-32.36 49.55-64.01 73.55-96.6zM602.26 309.2c26.62-34.89 53.65-69.47 79.8-104.72 12.74-.1 25.49.22 38.23.34-22.48 29.02-45 58.01-67.52 87-22.34 28.36-44.1 57.16-66.5 85.47-14.09 18.51-28.63 36.69-42.75 55.18-2.36 2.97-5.07 6.07-8.95 6.91-5.45 1.09-11.86.19-15.81-4.05-3.77-3.71-4.9-10.09-2.06-14.66 5.38-9.03 12.61-16.73 18.77-25.2 22.46-28.6 44.25-57.73 66.79-86.27z"/><path d="M812.85 234.92c2.16-2.78 4.06-5.75 6.55-8.26.07 15.47-.07 30.95-.01 46.43.06 2.18-1.75 3.77-2.86 5.47-38.34 49.63-76.81 99.15-115.33 148.62-3.99 4.67-6.9 11.02-13.08 13.15-8.1 2.47-19.17-2.09-20.13-11.28-1.01-5.48 2.98-9.91 6.15-13.84 46.01-60.27 92.79-119.95 138.71-180.29zM754.67 410.6c21.1-28.16 42.63-55.99 64.07-83.89.15 15.99.39 32.03-.16 47.99-14.34 19.19-29.29 37.97-43.82 57.04-2.56 3.34-5.12 7.01-9.12 8.74-4.77 2.01-10.37 1.1-14.83-1.28-5.79-3.21-8.16-11.38-4.67-17.07 2.5-4.09 5.71-7.67 8.53-11.53zM191.41 469.11c8.44-.46 16.9.33 25.36-.1-.11 26.33-.12 52.66-.34 78.99.1 7.45-.33 14.9.1 22.35 21.46-.18 42.91.15 64.37.04.42 7.22.07 14.46.22 21.69-29.06.19-58.1-.71-87.15-.46-1.09-.18-3.56.54-3.09-1.47.2-40.35.66-80.7.53-121.04zM301.06 592.16c.24-41.25-.01-82.5.45-123.75 7.87.24 15.75.05 23.61.3 2.1-.36 1.65 2.01 1.75 3.28-.09 31-.1 62-.12 93-.13 9.17.29 18.36-.23 27.52-8.48-.38-16.97-.21-25.46-.35zM583.63 483.64c9-8.5 21.04-13.53 33.33-14.55 12.79-1.12 26.24.11 37.78 6.11 11.2 5.87 18.96 17.29 21.18 29.66-7.79 1.68-15.77 2.55-23.39 4.94-2.39-4.8-4.35-10.1-8.77-13.48-7.26-6.34-17.58-7.02-26.7-5.56-9.74 1.36-18.13 8.36-22.07 17.24-3.56 8.48-3.95 17.87-3.99 26.95.44 9.89 2.36 20.35 8.75 28.25 5.64 7.39 15.17 10.8 24.22 11.08 9.04-.06 18.04-2.75 25.66-7.62.89-.82 2.72-1.12 2.71-2.58.39-5.16-.04-10.34.18-15.51-8.96-.38-17.94-.09-26.9-.31-.18-6.93-.05-13.86.08-20.79 17.15-.12 34.3.19 51.45.3-.03 16.54-.26 33.07-.64 49.6-14.07 12.24-32.79 19.23-51.49 18.44-15.73.15-31.94-5.34-42.86-16.96-12.01-13.12-17.02-31.34-16.68-48.85.54-16.86 6.04-34.2 18.15-46.36zM350.88 470.23c8.28.24 16.58.09 24.87.11.16 33.56-.17 67.11-.34 100.66 21.43.51 42.89.36 64.33.51.06 7.13-.01 14.27.03 21.41-11.91.68-23.82-.2-35.74-.12-17.95-.11-35.89-.24-53.84-.3.02-40.76.26-81.52.69-122.27zM446.89 469.74c9.69-.08 19.39.12 29.09.07 4.47 6.79 7.59 14.34 11.88 21.24 5.46 8.9 10.55 18.04 16.14 26.86 8.93-15.96 18.56-31.52 27.31-47.59 9.4.07 18.81-.12 28.2.36-13.89 22.44-27.76 44.89-41.71 67.3-1.12 1.81-2.45 3.71-2.18 5.97.11 16.51.01 33.02-.22 49.53-8.31.03-16.61-.06-24.92.03-.28-17.17.06-34.35-.19-51.51-.83-3.99-3.64-7.17-5.6-10.65-12.86-20.38-25.39-40.96-37.8-61.61zM733.19 470.2c15.8-2.29 33.05-.27 46.37 9.11 9.69 7.43 17.26 17.87 20.6 29.68 3.44 11.34 3.52 23.42 2.44 35.13-1.44 15.02-8.05 29.85-19.61 39.78-10.52 9.43-25.09 13.08-38.96 12.65-16.42-.1-33.32-6.79-43.66-19.88-7.69-9.5-11.27-21.59-12.8-33.54-1.49-15.62.45-31.89 7.59-46 3.57-7.06 9.12-12.93 15.3-17.78 6.69-4.81 14.65-7.7 22.73-9.15m4.23 21.39c-7.39 1.61-14.1 6.15-18.15 12.55-4.04 6.01-5.75 13.22-6.55 20.33-.78 9.53-.57 19.36 2.59 28.49 2.35 6.76 6.43 13.24 12.63 17.06 7.38 4.55 16.59 5.74 25 3.99 9.76-2.14 17.58-9.83 21.17-18.98 4.23-10.14 4.21-21.38 3.44-32.16-1.28-10.28-5.34-21.25-14.55-26.95-7.4-5.13-16.93-6.11-25.58-4.33zM210.88 626.94c6.82-4.68 17.79-.31 19.15 8.02 1.33 4.81-.34 9.81-3.36 13.61-18.16 22.9-36.31 45.81-54.4 68.76-3.1 3.87-5.86 8.05-9.47 11.48-.3-12.25.09-24.5.09-36.75.19-2.54-.28-5.5 1.69-7.48 11.25-13.78 22.06-27.91 33.1-41.86 4.32-5.32 8.04-11.2 13.2-15.78zM284.09 630.01c2.14-2.71 5.45-4.61 8.95-4.65 7.2-.29 13.84 6.45 13.36 13.67-.2 5.01-3.32 9.23-6.28 13.05-43.56 55.12-87.3 110.08-130.89 165.18-2.19 2.74-4.33 5.55-6.88 7.98-.11-12.74.19-25.49.15-38.23.14-1.32-.21-2.8.48-3.98 23.52-29.52 46.88-59.19 70.33-88.77 17.14-21.25 33.64-43.01 50.78-64.25zM360.62 629.62c5.94-6.95 18.46-3.05 20.83 5.32 1.13 4.96.34 10.52-3.1 14.44-33.82 43.16-67.91 86.09-101.96 129.06-24.29 29.74-47.41 60.42-71.75 90.13-11.3 14.07-22.39 28.31-33.61 42.45-2.41 2.94-4.36 6.32-7.29 8.8-2.45 1.51-5.22 2.4-7.84 3.56 2.16-4.82 4.51-9.65 5.45-14.89 1.4-8.8.66-17.73 1.14-26.58-.08-3.59 3.11-5.86 5.01-8.51 24.05-29.64 47.24-59.97 71.28-89.62 23.38-29.65 46.88-59.2 70.32-88.8 17.29-21.7 34.05-43.82 51.52-65.36zM441.8 626.78c5.44-1.7 11.56 1.18 14.51 5.87 1.85 3.32 2.04 7.44 1.25 11.09-2.14 5.37-6.12 9.7-9.53 14.28-12.19 14.87-23.98 30.06-35.83 45.2-22.66 28.08-44.75 56.62-67.28 84.8-45.99 57.95-92 115.89-138.11 173.75-9.29 11.86-18.84 23.5-27.98 35.47-9.14-2.3-18.03-5.52-27.06-8.23 17.81-22.3 35.75-44.52 53.32-67.02 25.13-31.54 50.31-63.03 75.17-94.78 20.65-25.36 40.66-51.24 61.15-76.73 14.41-18.59 29.36-36.76 43.79-55.34 16.16-20.77 32.56-41.35 48.97-61.93 2.06-2.62 4.32-5.4 7.63-6.43zM510.61 632.61c2.2-2.99 5.5-5.34 9.32-5.5 6.92-.81 13.7 4.94 14.1 11.89.57 4.88-2.15 9.29-5.01 12.98-11.14 13.88-22.19 27.81-33.34 41.68-21.64 28.01-44.06 55.41-65.8 83.34-13.86 17.4-27.69 34.83-41.59 52.19-9.21 12.41-19.39 24.06-28.69 36.4-20.33 25.64-40.74 51.23-61.11 76.85-15.71 20.04-31.95 39.65-47.57 59.77-10.95-.1-21.89.07-32.84-.11 9.53-13.01 20.08-25.26 30.03-37.95 19.37-24.94 39.17-49.54 58.8-74.26 19.87-25.43 40.14-50.55 60.22-75.8 23.25-29.66 46.75-59.13 70.25-88.59 24.29-31.06 49.08-61.72 73.23-92.89zM593.84 627.67c4.53-1.47 9.31.7 12.6 3.81 3.58 3.41 4.12 8.97 2.83 13.53-1.88 5.64-6.59 9.63-9.93 14.37-7.04 9.57-15 18.41-22.14 27.9-12.63 15.39-24.66 31.26-37.06 46.84-41.34 51.37-81.93 103.33-123.08 154.86-30.15 37.74-59.98 75.73-90.11 113.48-11.01.16-22.02 0-33.03-.12 3.52-5.24 7.9-9.82 11.74-14.82 18.56-23.67 37.32-47.19 56.04-70.73 18.42-22.99 36.47-46.27 54.93-69.23 23.88-29.82 47.28-60.03 71.44-89.62 31.06-40.16 63.31-79.38 94.14-119.71 3.36-3.98 6.15-9.3 11.63-10.56zM668.29 628.49c7.97-3.41 17.93 3.97 17.48 12.51.06 2.96-.75 5.96-2.51 8.36-6.45 8.74-13.51 17.01-20.15 25.61-9.48 12.47-19.5 24.51-29.28 36.75-16.53 21.17-33.22 42.21-50.01 63.18-59.43 75.15-119.22 150.01-178.72 225.09-1.15 1.16-2.05 3.18-4 2.91-10.44-.02-20.89-.04-31.34.04 17.52-22.5 35.24-44.86 53.08-67.12 19.98-25.03 39.66-50.29 59.82-75.18 25.96-33 51.94-65.99 78.32-98.65 23.93-31.01 48.88-61.21 72.79-92.24 9.24-11.46 18.23-23.12 27.35-34.67 2.06-2.5 4.08-5.31 7.17-6.59zM735.97 636.94c2.65-3.51 5.4-7.65 10.05-8.53 7.69-1.95 15.71 4.82 15.73 12.59.33 6.31-4.48 11.08-7.98 15.76-38.02 47.67-75.74 95.58-113.73 143.27-18.29 22.71-36.11 45.79-54.35 68.54-29.45 36.97-58.71 74.09-88.28 110.97-6.03 7.62-12.06 15.24-17.94 22.97-.99 1.51-3.04.75-4.51.95-9.8-.28-19.61-.03-29.41-.14 16.61-21.56 33.8-42.68 50.73-63.99 12.5-16.13 25.31-32.01 38.03-47.96 36.12-45.9 72.67-91.45 108.78-137.36 19.51-24.14 38.65-48.58 57.83-72.98 11.8-14.6 23.39-29.37 35.05-44.09zM807.26 643.27c3.25-4.07 6.07-8.5 9.8-12.18.39 13.99-.56 27.98-.2 41.98-22.57 28.39-44.82 57.04-67.67 85.21-16.5 21.05-33.05 42.07-49.94 62.82-36.87 46.82-73.92 93.49-111.01 140.14-11.2 14.1-22.59 28.06-33.47 42.4-10.98.19-21.96-.02-32.94-.03 15.4-20.79 32.07-40.62 47.88-61.11 13.18-16.42 26.23-32.96 39.45-49.37 16.16-20.47 32.11-41.1 48.6-61.3 14.44-18.29 28.88-36.57 43.4-54.79 15.43-19.85 31.42-39.23 46.78-59.12 19.74-24.91 39.66-49.67 59.32-74.65zM756.1 803.96c20.07-25.38 40.14-50.78 60.36-76.03.05 14.01-.33 28.03-.18 42.04-27.68 35.36-55.92 70.28-83.69 105.57-22.16 27.85-44.35 55.66-66.47 83.55-11.8 15.16-23.95 30.05-36.01 45.01-10.84.12-21.67-.15-32.5-.2 10.41-13.91 21.53-27.28 32.15-41.04 13.77-17.55 27.82-34.88 41.76-52.3 27.93-35.75 56.39-71.07 84.58-106.6zM806.95 835.91c3.11-3.67 5.77-7.71 9.06-11.22-.13 12.77-.19 25.54-.25 38.32-.17 1.39.25 3.01-.49 4.29-22.65 28.37-44.77 57.17-67.76 85.27-13.84 17.32-27.32 34.92-41.44 51.99-10.92-.19-21.85-.26-32.77-.2 10.42-13.29 20.88-26.54 31.38-39.75 13.14-17.09 27.12-33.53 40.21-50.67 20.68-26.01 41.41-51.98 62.06-78.03zM806.23 933.17c3.67-4.27 6.66-9.14 10.67-13.1 1.72 4.16 2.9 8.65 5.74 12.26 2.59 3.89 6.56 6.46 10.13 9.35-11.24 13.21-21.57 27.14-32.61 40.51-6.07 7.53-11.77 15.36-17.98 22.76-10.97-.37-21.95-.12-32.92 0 18.5-24.3 38.06-47.8 56.97-71.78z"/></g><g fill="#2a2a29"><path d="M95.44 77.59c10.66-1.61 22.1 2.61 28.84 11.09 9.33 11.68 9.03 30.22-1.71 40.93-9.04 9.9-24.72 12.66-36.63 6.54-6.76-3.72-12.73-9.5-15.27-16.93-3.06-8.78-2.64-19.1 2.52-27.02 4.78-7.82 13.17-13.36 22.25-14.61m1.2 10.09c-1.3 4.63-1.02 9.53-1.84 14.25-4.62-.11-9.17-1.15-13.79-1.09-5.61.3-6.65 9.93-1.06 11.31 4.41.97 9.03.61 13.44 1.68.17 5.06-1.35 10.07-.72 15.11 1.55 4.36 9.76 4.72 10.91-.18 1.01-4.54 1.09-9.22 1.6-13.83 4.93-.02 9.86.99 14.78.44 5.02-.86 5.12-9.35.22-10.55-4.48-1.38-9.25-1.26-13.85-1.98.17-4.94 1.04-9.85.94-14.8-.89-5.02-9.29-5.25-10.63-.36zM884.38 86.42c15.13-3.54 31.49 6.54 35.97 21.21 2.7 8.67 1.6 18.61-3.55 26.18-4.43 6.45-11.03 11.69-18.76 13.43-6.76 1.83-14.02.79-20.41-1.83-11.06-5.03-18.79-17.13-18.06-29.36.4-13.95 10.97-27.02 24.81-29.63m3.13 10.27c-1.17 4.43-1.16 9.06-1.44 13.6-5.05.76-9.97-1.5-15.01-.97-4.64.97-5.69 8.04-1.89 10.62 4.86 1.94 10.27 1.28 15.28 2.68-.55 4.82-1.84 9.63-1.51 14.51.9 5.21 9.45 5.74 11.2.85 1.22-4.64.97-9.52 1.73-14.25 4.71-.06 9.4 1.05 14.12.59 5.45-.39 6.13-9.89.7-10.89-4.4-.99-8.97-.76-13.41-1.56.1-4.98 1.38-9.94.89-14.93-.73-5.13-9.54-5.23-10.66-.25zM56.76 448.81c1.02-.21 2.04-.41 3.06-.6-.47.29-1.41.88-1.88 1.17.07 2.38.12 4.75.16 7.14 1.08-.17 3.23-.52 4.31-.69-1.57.48-3.12 1.03-4.67 1.57.08 8.27-.32 16.54.1 24.8.2 2.68.5 5.43-.42 8.03-.64-1.72-.54-3.5-.55-5.27.11-12.05.05-24.11-.11-36.15zM88.44 941.46c14.87-3.69 31.09 6.74 34.72 21.45 4.58 14.59-4.37 31.97-19.09 36.39-13.89 5.48-30.78-2.18-36.76-15.64-5.38-11.43-2.73-26.13 6.75-34.6 4.01-3.75 9.03-6.38 14.38-7.6m15.51 10.41c-3.6 3.14-6.52 6.96-9.95 10.28-3.6-2.78-6.71-6.13-10.32-8.88-1-.94-2.53-1.23-3.65-.33-2.37 1.71-4.4 4.16-5.21 7 2.6 4.65 7.82 6.97 10.88 11.25-2.23 4.41-6.62 7.15-9.29 11.24-1.11 2.14.79 4.41 2.33 5.79 1.67 1.21 3.66 3.02 5.89 2.36 4.06-2.87 6.09-7.95 10.4-10.47 4.73 2.37 7.54 8.08 13.01 9.09 2.96-1.43 6.52-4.59 5.86-8.13-3.03-4.09-7.5-6.85-10.6-10.91 3.02-3.89 7.04-7.04 9.42-11.39.23-2.52-1.77-4.54-3.53-6.04-1.42-1.06-3.68-2.33-5.24-.86zM881.29 947.36c16.21-3.71 32.92 9.55 34.91 25.67 2.56 13.64-6.97 26.95-19.16 32.23-7.52 3.12-16.28 2.51-23.66-.73-8.02-4.07-14.48-11.55-16.31-20.48-4.35-16.16 7.66-34.3 24.22-36.69m-7.18 10.73c.3 5.31 2.97 10.12 4.44 15.16-4.79 2.47-10.18 3.67-14.63 6.81.54 3.31.7 8.18 4.33 9.58 5.08-.54 9.65-3.25 14.56-4.57 2.01 4.2 3.11 8.77 5.15 12.97.96 2.54 4.14 1.68 6.14 1.08 2.12-.81 5.61-2.07 4.69-5.01-1.04-4.57-3.1-8.83-4.35-13.34 4.37-2.21 9.34-3.14 13.44-5.88 1.38-.9.7-2.8.52-4.11-.64-2.64-1.86-6.62-5.38-5.92-4.49.91-8.55 3.19-12.99 4.27-3.03-4.66-2.58-11.44-7.2-14.93-3.15.43-6.59 1.39-8.72 3.89z"/></g><g fill="#b29960"><path d="M109.94 179.94c6.56-3.98 14.82-4.19 22.03-2.04 6.99 2.48 12.79 7.96 15.84 14.71-.06 6.88-.15 13.76.27 20.63-2.64 6.97-8.35 12.78-15.44 15.2-7.05 2.43-15.19 2.26-21.84-1.27-2.57-1.28-4.65-3.84-7.69-3.94-8.04-.58-16.12-.43-24.18-.59-6.13-.35-10.97 4.32-16.95 4.91-2.12.39-2.93-1.33-3.66-2.94 6.98 3.42 12.78-4.16 19.7-3.69 7.67.2 15.35.18 23.03.31 5.71-.21 9.6 4.75 14.87 6.06 10.99 3.97 23.81-1.89 29.5-11.72 2.39-5.89.33-12.41.79-18.57.44-6.69-4.94-11.7-10.08-15.03-6.03-4.1-13.91-4.37-20.76-2.5-4.99 1.38-8.91 5.76-14.34 5.66-7.01.09-14.03-.06-21.04.09-7.23.55-12.86-5.33-20.06-5.22.25 2.04.71 4.06 1.53 5.95-.59.02-1.76.06-2.34.07l-.93.04c-.33-2.86-.48-5.76.13-8.59 4.58.61 9.02 2.01 13.12 4.15 3.85 2.14 8.35 1.61 12.58 1.67 5.98-.03 11.97.24 17.96.12 3.07.14 5.4-2.14 7.96-3.47zM841.13 196.27c5.95-12.89 23.19-18.66 35.75-12.13 2.88 1.2 5.09 3.81 8.14 4.59 9 .5 18.03.12 27.05.14 2.96.15 5.47-1.6 8.08-2.71 3.03-1.42 6.32-2.08 9.57-2.82.01 2.86.08 5.72-.03 8.59l-1.32.46c-.16-2.17-.3-4.33-.44-6.49-3.51.33-6.82 1.51-9.93 3.1-4.33 2.27-9.35 1.74-14.06 1.79-5.66-.14-11.32.14-16.96-.12-3.9-.03-6.8-2.92-10.04-4.64-7.23-4.19-16.46-3.47-23.75.17-6.14 3.13-10.36 9.15-12.36 15.63-2.2 7.51-.12 15.74 4.18 22.1 6.2 8.44 18.02 11.51 27.89 8.75 3.79-.96 6.61-3.91 10.2-5.31 5.55-1.03 11.25-.46 16.87-.61 5.83.18 12.03-.83 17.47 1.83 3.68 1.76 7.6 3.03 11.69 3.43-.38-2.36-1.01-4.68-2.2-6.76l3.37.52c.17 2.97.22 5.95-.01 8.92-4.87-1.24-9.75-2.58-14.24-4.87-2.76-1.52-5.98-1.29-9.01-1.32-7.02.03-14.04-.02-21.05.17-4.03-.01-6.83 3.36-10.36 4.77-8.4 3.54-18.66 2.39-26.03-2.99-10.56-7.4-14.6-22.71-8.47-34.19z"/><path d="M859.71 225.48c3.48-.65 7.05-.61 10.54.01-3.38 1.2-7.21 1.47-10.54-.01zM112.09 331.13c6.25-3.24 13.74-2.76 20.2-.41 10.76 4.13 17.86 15.78 16.87 27.23-.61 10.43-8.19 19.75-17.87 23.33-8.2 2.59-17.72 1.45-24.55-4-2.66-2.43-6.37-1.98-9.69-1.99-7.03.1-14.06-.12-21.09-.08-2.94-.11-5.43 1.62-8.03 2.7-3.1 1.42-6.49 2.01-9.83 2.61.01-2.64.08-5.28.34-7.91l.11-1.05 1.54.27c.37.06 1.13.18 1.5.25-.62.96-1.24 1.93-1.87 2.91.12.79.34 2.36.45 3.15 3.45-.56 6.77-1.68 9.98-3.04 5.32-2.31 11.22-1.3 16.82-1.37 5.62.21 11.31-.56 16.88.48 4.5 1.49 8.1 5.01 12.78 6.11 6.3 1.37 13.29.71 18.75-2.92 5.92-3.98 11.04-10.05 11.73-17.4 1.45-8.39-1.74-17.3-8.11-22.93-5.73-5.59-14.35-7.25-22.04-5.89-6.05 1.15-10.55 6.64-16.96 6.47-8.3.07-16.61 0-24.9-.15-5.09-1.1-9.31-4.79-14.65-5.21-.34 2.1-.71 4.19-1.11 6.29-1.69-2.57-.72-5.81-.84-8.69 3.07.71 6.19 1.35 9.07 2.67 3.03 1.3 5.9 3.45 9.38 3.14 8.01-.04 16.02.01 24.04.01 4.29.37 7.37-3.1 11.1-4.58zM858.99 334.43c7.54-1.84 15.58.31 21.86 4.66 2.9 2.31 6.72 1.69 10.16 1.72 6.68-.18 13.35-.09 20.03-.11 3.48.21 6.52-1.63 9.64-2.86 2.92-1.21 6.03-1.87 9.12-2.51.47 2.93.34 5.91.05 8.86l-1.02-.05-2.27-.08c.95-1.89 1.56-3.92 1.7-6.03-6.48-.22-11.78 4.56-18.25 4.31-7.67-.02-15.34.08-23 .03-4.45.08-8.17-2.59-12-4.43-12.3-6.37-29.03.06-33.99 12.95-1.67 5.41-2.28 11.43-.62 16.91 2.99 6.7 7.77 13.1 14.64 16.16 6.43 2.41 14.02 2.53 20.11-.92 3.16-1.65 6.05-4.32 9.82-4.34 5.35-.22 10.7.12 16.06.01 5.17.08 10.64-.65 15.49 1.63 3.7 1.71 7.53 3.24 11.64 3.64-.17-2.25-.4-4.54-1.35-6.62.71.03 2.13.11 2.84.14.04 2.83-.01 5.66-.12 8.49l-.22-.02c-6.32-.06-11.56-3.99-17.48-5.44-8.93-.4-17.89-.12-26.83-.21-3.15-.19-5.5 2.22-8.07 3.62-7.08 4.52-16.4 4.17-23.87.83-6.83-3.51-12.38-9.76-14.55-17.17-1.58-6.35-1.18-13.36 1.93-19.19 3.67-7.15 10.7-12.37 18.55-13.98zM112.02 483.07c7.83-3.72 17.67-2.83 24.73 2.19 9.15 6.12 13.75 18.04 11.29 28.73-1.35 6.82-5.91 12.68-11.64 16.45-7.22 4.74-16.9 5.42-24.75 1.86-3.6-1.57-6.5-5.06-10.7-4.89-8.96-.05-17.96-.45-26.9.1-5.41 1.79-10.51 4.68-16.31 5.26.02-2.92.06-5.86-.58-8.72 1.31-.24 2.61-.48 3.92-.71-2.14 2-1.96 4.95-1.89 7.63 6.24-.92 11.4-5.5 17.85-5.35 6.65-.21 13.29.02 19.94.01 2.8.07 5.72-.03 8.34 1.12 4.03 1.79 7.6 4.72 11.99 5.66 6.33 1.14 13.11-.03 18.49-3.61 6.62-4.27 10.99-11.88 11.03-19.79 1.09-13.88-11.58-27.88-25.86-26.3-6.09-.25-10.96 3.64-16.28 5.85-5.47 1.33-11.18.51-16.75.69-6.1-.26-12.56.86-18.31-1.75a62.04 62.04 0 0 0-9.74-3.3c-.01 2.37.22 4.74.78 7.06a31.05 31.05 0 0 1-3.34-.57l.09-.46c.92-2.6.62-5.35.42-8.03 5.77.22 10.74 3.29 16.12 4.91 8.67.64 17.41.2 26.1.4 4.53.45 8.03-2.82 11.96-4.44zM841.75 496.77c6.33-9.13 18.47-13.52 29.2-10.71 4.46 1.06 8.02 4.1 12.1 6.03 8.27.75 16.63.09 24.94.25 7.42.46 13.41-5.49 20.86-5.1.55 2.61.28 5.3.29 7.96-1.07.18-2.12.36-3.16.55 1.47-1.92 1.69-4.36 1.96-6.67-3.48.21-6.79 1.3-9.9 2.82-4.99 2.39-10.64 2.18-16.02 2.26-5.34-.05-10.67.2-15.99-.08-5.7.02-9.6-4.88-14.89-6.22-8.41-1.99-18.08-.37-24.44 5.81-5.93 5.29-8.71 13.5-7.73 21.34.19 6.95 4.63 12.93 9.86 17.15 5.81 4.56 13.69 5.61 20.81 4.32 4.46-.89 7.91-4.09 12.03-5.79 2.98-1.03 6.2-.67 9.31-.65 6.02.29 12.05.04 18.08.35 6.01.24 11.09 4.1 17.07 4.65.79-3.08-1.19-5.58-3.29-7.55 2 .59 4.01 1.18 6.04 1.76l-.06.41c-.39 2.75-.73 5.5-1.13 8.25-4.23-1.08-8.44-2.3-12.32-4.33-4.06-2.31-8.88-1.61-13.34-1.76-6.37.13-12.74-.3-19.09-.03-3.39.95-5.96 3.64-9.18 5-9.83 4.31-21.99 1.51-29.29-6.26-8.79-8.7-10.06-23.79-2.72-33.76zM110.81 558.99c9.56-4.62 21.69-2.43 29.19 5.06 7 6.36 9.67 16.57 7.85 25.71-2.25 9.85-10.65 18.26-20.76 19.77-6.06.77-12.65.6-18-2.69-2.63-1.34-4.92-3.82-8.07-3.68-8.36-.13-16.72.16-25.07-.2-3.04-.32-5.69 1.38-8.37 2.54-3.18 1.45-6.63 2.18-10.01 2.99-.13-2.98-.23-5.95-.58-8.9h2.76c-.39 2.13-.66 4.28-.85 6.45 3.74-.51 7.34-1.71 10.74-3.34 3.83-1.93 8.2-1.44 12.34-1.45 6.03.12 12.07-.13 18.1.02 3.66-.13 6.62 2.25 9.68 3.9 5.68 3.42 12.78 3.84 19.12 2.31 8.34-2.16 14.65-9.35 17.23-17.36 2.91-11.26-2.98-23.77-13.34-28.94-6.01-3.31-13.4-3.53-19.79-1.26-4.06 1.54-7.46 4.91-12 5.04-8 .42-16.02-.24-24.04-.05-6.16.3-11.19-3.96-17.11-4.94-.21 2.41 0 4.83.48 7.21l-1.23-.52c-.37-.17-1.1-.52-1.47-.69-.05-2.77.06-5.54.15-8.3 4.49 1.09 9.06 2.12 13.18 4.33 2.75 1.62 6 1.29 9.06 1.26 7.01-.16 14.02.07 21.04-.02 3.82.28 6.51-2.84 9.77-4.25zM856.76 561.94c6.14-1.42 12.93-1.31 18.56 1.81 3.19 1.52 5.95 4.32 9.7 4.32 5.66.26 11.34.15 17.01.26 3.99-.07 8.18.35 11.96-1.25 4.57-1.92 9.18-3.99 14.21-4.31.15 2.86.29 5.73.44 8.6-1.14.16-2.26.33-3.38.51.73-2.26 1.07-4.62.96-6.98-3.77.61-7.34 1.97-10.83 3.47-5.17 2.21-10.91 1.38-16.36 1.43-5.48-.26-11.01.37-16.45-.46-4.82-1.42-8.6-5.36-13.7-6.04-10.95-2.39-23.25 3.39-27.96 13.64-3.01 5.89-2.88 12.93-1.08 19.17 4.26 12.27 19.26 19.96 31.59 15.28 4.67-1.5 8.41-5.58 13.56-5.55 5.34-.2 10.69.08 16.04-.03 4.54.06 9.33-.46 13.6 1.46 3.42 1.51 6.93 2.84 10.62 3.53.45-1.63.91-3.24 1.39-4.85.39 2.53.78 5.06 1.23 7.59-5.8-1.35-11.23-3.86-16.83-5.76-8.66-.42-17.35-.06-26.02-.26-4.43-.34-7.58 3.29-11.45 4.77-11.29 5.07-25.54.57-32.31-9.66-5.22-7.39-5.97-17.56-2.36-25.79 3.44-7.2 10.03-13.02 17.86-14.9zM113.73 633.67c9.54-3.17 20.57-.18 27.18 7.38 10.23 9.97 9.22 28.19-1.12 37.7-6.95 7.03-18.02 8.89-27.21 5.75-3.54-1.13-6.26-3.85-9.66-5.21-3.96-.7-8-.35-12-.43-6.4.11-12.84-.32-19.22.49 1.89-2.79 5.48-2.02 8.35-2.2 6.97.14 13.95-.23 20.92.15 5.13.52 8.77 4.88 13.72 6.03 11 3.35 23.98-2.11 29.03-12.48 2.56-5.91 3.55-12.76 1.51-18.97-3.25-11.78-16.28-19.85-28.29-17.19-6.19.44-10.67 6.08-17 5.75-7.97-.03-15.95-.05-23.92-.03-5.99.25-10.79-4.16-16.7-4.5-.15 2.13-.29 4.28-.42 6.43l-1.59-.23c.04-2.85.16-5.7.3-8.53 3.13.64 6.3 1.26 9.27 2.5 2.95 1.18 5.81 2.96 9.12 2.76 8 .01 15.99.05 23.98.06 5.25.42 8.83-4.27 13.75-5.23zM836.96 657.99c2.49-13.85 17.31-23.62 31.06-21.07 5.22.58 9.36 4.05 14.04 6.05 7.58.98 15.3.14 22.94.45 8.21.81 15.34-4.08 23.22-5.42.05.92.14 2.76.19 3.68-4.12-.78-8.22.17-12.03 1.72-4.55 1.85-9.52 1.85-14.34 1.75-6.4-.17-12.87.51-19.2-.59-5.31-.92-9.42-4.96-14.74-5.84-10.94-2.14-22.7 3.96-27.58 13.92-4.86 10.71-1.54 24.77 8.5 31.3 6.07 4.43 14.15 5.28 21.28 3.27 4.96-1.85 9.27-5.69 14.8-5.8 7.97-.2 15.98-.01 23.95.34 5.83.26 10.68 4.28 16.46 4.74 2.88-1.67.71-4.89-.56-6.86 1.1.38 2.2.77 3.32 1.17-.01 2.74-.05 5.48-.43 8.21-5.7-.82-10.9-3.27-16.16-5.44-8.86-.81-17.82-.19-26.72-.39-3.81-.44-6.85 2.06-9.97 3.8-5.98 3.57-13.43 3.48-20 1.85-12.68-3.76-20.66-18.01-18.03-30.84zM102.7 714.61c4.94-2.3 9.43-6.11 15.15-6.29 10.5-1.47 21.22 4.26 26.4 13.37 6.39 11.04 4.06 26.51-6.17 34.44-7.43 5.98-18.19 7.35-26.95 3.65-3.19-1.3-5.83-3.75-9.14-4.75-5.64-.63-11.34-.16-17-.38-5.22.11-10.77-.77-15.62 1.68-3.96 1.82-8.2 2.89-12.48 3.65-.23-2.78-.43-5.56-.75-8.33l-.01-.07 2.71-.24c-.3 1.75-.66 3.52-.52 5.32.46 1.36 1.96.98 3.02.79 4.69-.97 8.79-3.9 13.62-4.36 5.67-.52 11.37-.15 17.05-.27 3.55.05 7.17-.25 10.63.66 3.95 1.43 7.29 4.21 11.36 5.39 9.43 2.75 20.95.31 26.86-8.01 8.66-10.62 6.07-27.87-4.88-35.92-6.14-4.82-14.6-6.26-22.05-4.08-4.53 1.3-8 5.3-12.88 5.49-6.01.3-12.03-.09-18.04.07-4.93-.06-10.21.67-14.71-1.81-3.16-1.71-6.56-3.06-10.22-2.78.13 2.65 1.03 5.21 3.04 7.04-1.67-.3-3.33-.58-5-.81.72-2.86.72-5.81.72-8.72 4.71.83 9.46 1.84 13.74 4.08 3.8 2.1 8.26 1.25 12.41 1.39 6.56-.2 13.17.43 19.71-.2zM841.24 723.26c5.47-7.26 14.68-11.83 23.84-10.84 5.19.3 9.93 2.63 14.25 5.37 2.84 1.92 6.4 1.26 9.63 1.25 7.8-.4 15.7.76 23.43-.61 5-1.97 10.04-3.91 15.35-4.91.08 2.97.14 5.94.28 8.93l-.37-.15c-.51-.2-1.52-.58-2.03-.77.68-1.67 1.14-3.42 1.49-5.18-3.57-.1-6.98 1-10.15 2.54-5.6 2.74-11.95 1.63-17.93 1.82-5.8-.15-11.65.58-17.4-.28-5.07-1.66-9.38-5.35-14.81-6.02-12.25-2.59-25.32 6.19-28.08 18.29-1.76 5.61.07 11.41-.19 17.13-4-8.44-2.96-19.11 2.69-26.57zM111.4 785.48c8.82-3.28 19.47-1.69 26.57 4.62 6.18 5 9.16 13.1 9.2 20.9.32 9.08-4.7 18.09-12.52 22.68-7.59 4.53-17.49 4.98-25.41 1.04-3.29-1.57-6.12-4.63-10.05-4.28-8.93.07-17.92-.56-26.82.18-5.13 2.26-10.35 4.41-15.97 5.13-.01-2.4.05-4.8-.1-7.19-.21-.3-.63-.9-.84-1.19l-.08-.12c.63-.03 1.89-.08 2.52-.11.4-.02 1.2-.07 1.6-.09-1.17 2.09-1.55 4.44-1.46 6.82 3.59-.69 7.05-1.89 10.3-3.55 3.87-2.08 8.39-1.54 12.61-1.56 6.36.15 12.73-.18 19.09.08 3.79.01 6.65 2.79 9.89 4.34 12.01 6.27 28.85.44 33.75-12.37 3.28-9.61 1.84-21.46-5.96-28.53-6.5-6.71-16.98-8.04-25.56-5.08-4.13 1.47-7.52 4.96-12.11 5.02-4.67.23-9.36-.07-14.04.03-5.24-.01-10.73.5-15.68-1.62-3.74-1.56-7.58-3.02-11.66-3.37-.24 2.09-.49 4.18-.74 6.29l-1.27-.54c-.11-2.73-.02-5.45.07-8.17 3.7.69 7.44 1.35 10.93 2.82 2.73 1.1 5.36 2.76 8.4 2.69 7.98.09 15.96.09 23.93.04 4.4.11 7.49-3.52 11.41-4.91zM850.3 790.26c7.86-4.29 17.95-3.76 25.48 1 2.3 1.24 4.44 3.25 7.22 3.2 6.67.08 13.33.04 20 .21 3.48.01 7.16.41 10.38-1.23 4.45-2.05 9.09-3.83 14.03-4.26l.18-.03c0 2.77-.02 5.54-.05 8.32-3.86.78-7.34 2.64-10.44 5.02.13-4.52 4.76-5.15 8.07-6.51 1.01-1.55 1.23-4.59-1.32-4.46-3.36.83-6.38 2.64-9.68 3.63-5.22 1.78-10.81 1.13-16.2 1.12-5.03-.14-10.07.26-15.08-.22-5.68-.57-9.77-5.3-15.25-6.5-6.4-1.1-13.34-.37-18.8 3.38-13.37 7.77-14.97 28.73-3.97 39.21 5.01 6.27 13.52 7.92 21.12 6.8 5.6-.32 10.01-4.17 15.16-5.87 4.88-.94 9.9-.17 14.84-.35 6.14.15 12.65-.92 18.43 1.77 3.45 1.53 7.06 2.68 10.78 3.42-.14-2.38-.44-4.74-.98-7.05 1.03.26 2.08.54 3.14.82l.12 8.09-.3-.02c-5.26.05-10.1-2.12-14.78-4.26-2.92-1.44-6.22-1.18-9.36-1.19-6.37.05-12.74-.07-19.11-.09-3.72-.32-6.59 2.39-9.72 3.92-5.93 3.28-13.13 3.64-19.61 2.01-10.36-3.16-18.51-13.13-18.8-24.07-.87-10.53 5.06-21.09 14.5-25.81zM904.78 863.5c7.46-.03 14.93.04 22.4-.08.12 2.9.14 5.82.11 8.74l-2.75.08c.56-2.06 1.03-4.14 1.5-6.21-5.82-1.14-11.8-.85-17.69-.57-4.01.09-5.71 4.59-9.18 5.85-2.67.57-5.46.24-8.09-.34-3.67-.94-4.82-6.36-9.08-5.78-8.67-.17-17.33.15-26-.05-6.09-.11-12.34-1.06-18.31.57-.81 3.35-.41 6.84-.42 10.26.31 11.66-.12 23.33.21 34.98-.16 1.86 2.28 1.56 3.49 1.71 12.65.06 25.31-.18 37.96.07 2.37-.21 5.4.54 7.05-1.66 2.82-3.4 7.17-6.04 11.73-4.85 3.54.61 5.42 3.95 7.54 6.48 6.88.17 13.77.27 20.65.01-.13-2.43-.46-4.86-1.63-7 1.02.28 2.05.58 3.09.89-.05 2.69-.12 5.38-.46 8.06-6.99-.1-13.98-.02-20.96-.23-2.46.31-3.12-2.5-4.49-3.92-1.93-3.02-6.08-3.4-9.19-2.29-3 .9-4.65 3.75-6.47 6.06-16.44.18-32.88-.31-49.32.03-.44-2.43-.72-4.89-.67-7.35.09-14.57-.09-29.14 0-43.7 16.77.08 33.55.18 50.33.14 1.45 2.04 2.9 4.08 4.38 6.12 2.79.27 5.61.81 8.44.54 2.47-1.65 4.02-4.28 5.83-6.56z"/></g><g fill="#c29739"><path d="M115.37 179.47c6.85-1.87 14.73-1.6 20.76 2.5 5.14 3.33 10.52 8.34 10.08 15.03-.46 6.16 1.6 12.68-.79 18.57-5.69 9.83-18.51 15.69-29.5 11.72-5.27-1.31-9.16-6.27-14.87-6.06-7.68-.13-15.36-.11-23.03-.31-6.92-.47-12.72 7.11-19.7 3.69.73 1.61 1.54 3.33 3.66 2.94-1.25.03-2.5.02-3.75-.01l-.59-.02c.07-2.53.12-5.05.19-7.58 5.74-1.2 11.5-4.52 13.7-10.23 4.19-9.54-1.95-21.98-12.41-23.69.58-.01 1.75-.05 2.34-.07-.82-1.89-1.28-3.91-1.53-5.95 7.2-.11 12.83 5.77 20.06 5.22 7.01-.15 14.03 0 21.04-.09 5.43.1 9.35-4.28 14.34-5.66m3.01 8.1c-8.9 2.3-14.36 13.25-10.7 21.7 1.87 4.73 5.9 8.59 10.71 10.22 4.42.67 9.37.77 13.22-1.87 7.05-3.89 10.06-13.5 6.63-20.74-3.01-7.57-12.1-11.94-19.86-9.31zM853.19 186.2c7.29-3.64 16.52-4.36 23.75-.17 3.24 1.72 6.14 4.61 10.04 4.64 5.64.26 11.3-.02 16.96.12 4.71-.05 9.73.48 14.06-1.79 3.11-1.59 6.42-2.77 9.93-3.1.14 2.16.28 4.32.44 6.49-.34.12-1.02.35-1.36.47-4.95 1.57-9.35 5.32-10.85 10.4-2.94 8.54 2.15 18.77 10.63 21.72l.14.28c1.19 2.08 1.82 4.4 2.2 6.76-4.09-.4-8.01-1.67-11.69-3.43-5.44-2.66-11.64-1.65-17.47-1.83-5.62.15-11.32-.42-16.87.61-3.59 1.4-6.41 4.35-10.2 5.31-9.87 2.76-21.69-.31-27.89-8.75-4.3-6.36-6.38-14.59-4.18-22.1 2-6.48 6.22-12.5 12.36-15.63m9.94 5.81c-6.03.31-11.32 4.57-13.67 10-3.6 8.32.76 19.37 9.56 22.24 4.64.8 9.89 1.26 14.12-1.25 6.45-3.61 9.87-11.94 7.73-19.02-2.01-7.51-9.97-13.1-17.74-11.97m-3.42 33.47c3.33 1.48 7.16 1.21 10.54.01-3.49-.62-7.06-.66-10.54-.01zM106.16 258.21c5.52-3.71 12.15-6.04 18.86-5.44 8.77.83 17.24 5.99 21.29 13.93 3.19 5.68 3.63 12.49 2.53 18.8-2 9.83-10.19 18.11-20.01 20.19-6.34 1.3-13.29.69-18.89-2.72-2.83-1.52-5.47-3.95-8.9-3.75-8.97.08-17.98-.39-26.93.15-5.2 1.69-10.08 4.45-15.61 5.07-.02-2.84 0-5.68-.15-8.51 6.31-.88 11.61-5.94 13.37-11.99 2.9-8.34-2.54-18.92-11.2-20.99-1.86-2.23-1.48-5.13-1.21-7.81 2.01.02 4.03 0 6.04.21 4.38.88 8.01 4.38 12.65 4.02 6.99-.1 13.97-.05 20.96.08 2.44-.03 5.13.35 7.2-1.24m10.92 5.69c-6.53 2.32-11.27 9.11-10.77 16.1-.01 9.81 10.17 18.13 19.77 15.86 7.95-1.23 13.47-9.19 13.3-16.97-.41-6.97-5.41-13.66-12.29-15.37-3.3-.5-6.79-.62-10.01.38zM840.45 273.37c5.16-11.81 19.5-18.46 31.84-14.68 4.36 1.06 7.8 4.08 11.77 5.97 5.61.54 11.27.03 16.9.42 5.45-.11 11.36.98 16.38-1.74 3.96-2.12 8.35-3.15 12.75-3.93.24 2.95.37 5.94-.29 8.85-7.69.17-14.32 7.19-14.85 14.72-1 8.82 5.86 17.7 14.75 18.69.08 2.71.07 5.43-.02 8.15-2.97-.19-5.98-.55-8.74-1.71-3.56-1.36-6.85-3.92-10.85-3.63-8.06.03-16.11-.19-24.17.01-4.63-.03-7.72 4.17-12.01 5.32-8.07 2.29-17.32 1.57-24.36-3.28-10.52-6.95-14.42-21.8-9.1-33.16m21.23-5.37c-5.75 1.13-10.7 5.4-12.85 10.81-3.32 8.56 1.91 19.69 11.08 21.71 4.31.46 9.2.9 12.99-1.67 4.76-2.91 8.08-8.27 7.9-13.94.91-10.02-9.41-18.76-19.12-16.91zM100 337.65c6.41.17 10.91-5.32 16.96-6.47 7.69-1.36 16.31.3 22.04 5.89 6.37 5.63 9.56 14.54 8.11 22.93-.69 7.35-5.81 13.42-11.73 17.4-5.46 3.63-12.45 4.29-18.75 2.92-4.68-1.1-8.28-4.62-12.78-6.11-5.57-1.04-11.26-.27-16.88-.48-5.6.07-11.5-.94-16.82 1.37-3.21 1.36-6.53 2.48-9.98 3.04-.11-.79-.33-2.36-.45-3.15.63-.98 1.25-1.95 1.87-2.91-.37-.07-1.13-.19-1.5-.25 5.29-1.88 10.1-5.75 11.37-11.45 3.11-8.96-2.95-18.85-11.71-21.58l-.41-.22c.4-2.1.77-4.19 1.11-6.29 5.34.42 9.56 4.11 14.65 5.21 8.29.15 16.6.22 24.9.15m19.96 2.15c-4.68 1.04-9.33 3.66-11.66 8-2.46 4.29-2.55 9.7-.8 14.26 2.91 7.84 12.56 12.35 20.42 9.41 6.3-1.87 10.6-7.98 11.29-14.37.86-10.1-9.04-19.74-19.25-17.3zM841.02 350.89c4.96-12.89 21.69-19.32 33.99-12.95 3.83 1.84 7.55 4.51 12 4.43 7.66.05 15.33-.05 23-.03 6.47.25 11.77-4.53 18.25-4.31-.14 2.11-.75 4.14-1.7 6.03l2.27.08c-5.26.84-10.23 4.06-12.56 8.93-3.1 5.88-2.18 13.54 2.28 18.48 2.19 2.65 5.36 4.1 8.26 5.81.95 2.08 1.18 4.37 1.35 6.62-4.11-.4-7.94-1.93-11.64-3.64-4.85-2.28-10.32-1.55-15.49-1.63-5.36.11-10.71-.23-16.06-.01-3.77.02-6.66 2.69-9.82 4.34-6.09 3.45-13.68 3.33-20.11.92-6.87-3.06-11.65-9.46-14.64-16.16-1.66-5.48-1.05-11.5.62-16.91m16.39-5.43c-4.9 2.38-8.64 7.14-9.64 12.51-.89 5 1.01 10.2 4.28 13.98 6.76 7.42 20.39 6.38 25.73-2.21 4.62-6.42 3.52-15.96-2.22-21.33-4.65-4.68-12.25-5.34-18.15-2.95zM110.11 408.11c7.4-4.07 16.74-4.26 24.27-.43 12.9 6.21 18.17 23.79 11.7 36.36-5.57 11.85-20.8 18.11-32.96 12.85-4.23-1.41-7.41-5.53-12.09-5.47-7.68-.14-15.36-.32-23.04-.24-5.59-.08-10.2 3.68-15.58 4.65-1.08.17-3.23.52-4.31.69-.04-2.39-.09-4.76-.16-7.14.47-.29 1.41-.88 1.88-1.17 3.36-1.97 7.28-3.51 9.29-7.09 6.28-9.05 1.58-23.69-9.62-25.99-.3-.55-.88-1.63-1.18-2.17-.05-2.31-.03-4.62-.01-6.92 3.58.8 7.22 1.56 10.58 3.1 2.6 1.08 5.14 2.65 8.06 2.58 8.04.08 16.09.11 24.14.1 3.49.29 6.12-2.27 9.03-3.71m8.34 7.7c-6.93 1.64-12.07 8.17-12.67 15.17-.57 8.93 7.24 17.46 16.2 17.58 9.27.6 17.96-8.28 16.78-17.59-.19-9.86-10.69-18.04-20.31-15.16zM837.43 435.07c.4-14.09 13.52-26.1 27.57-25.55 6.91-.37 12.65 3.76 18.36 6.94 9.79.5 19.68.28 29.49.07 5.27-1.88 10.25-4.6 15.79-5.76-.2 2.65.93 6-.77 8.19l-1.93.84-.4.31-.41.18c-3.39 2.35-7.27 4.44-9.17 8.33-3.02 6.5-2.11 15.1 3.26 20.14 2.7 2.73 6.4 4.03 10.04 4.99.06 2.69.01 5.38-.36 8.05-2.93-.39-5.88-.88-8.59-2.09-3.38-1.34-6.53-3.72-10.33-3.5-8.36-.05-16.71-.09-25.06.02-2.9-.2-5.15 1.83-7.5 3.18-5.09 3.22-11.42 4.38-17.33 3.3-12.97-1.8-23.64-14.47-22.66-27.64m24.68-15.16c-6.41.58-11.87 5.32-14.1 11.23-3.32 9.62 4.28 22.09 14.99 21.55 9.49.73 18.42-8.03 17.36-17.6-.26-9.1-9.45-16.13-18.25-15.18zM104.69 488.56c5.32-2.21 10.19-6.1 16.28-5.85 14.28-1.58 26.95 12.42 25.86 26.3-.04 7.91-4.41 15.52-11.03 19.79-5.38 3.58-12.16 4.75-18.49 3.61-4.39-.94-7.96-3.87-11.99-5.66-2.62-1.15-5.54-1.05-8.34-1.12-6.65.01-13.29-.22-19.94-.01-6.45-.15-11.61 4.43-17.85 5.35-.07-2.68-.25-5.63 1.89-7.63 4.42-2.18 8.47-5.61 9.84-10.54 2.96-8.52-1.69-18.56-10.25-21.54-.56-2.32-.79-4.69-.78-7.06 3.33.83 6.59 1.93 9.74 3.3 5.75 2.61 12.21 1.49 18.31 1.75 5.57-.18 11.28.64 16.75-.69m13.76 3.08c-10.24 1.8-16.08 14.8-10.85 23.72 3.61 8.08 14.11 10.47 21.79 7.21 7.48-3.59 11.26-13.28 8.09-20.96-2.78-7.51-11.26-11.95-19.03-9.97zM846.7 493.67c6.36-6.18 16.03-7.8 24.44-5.81 5.29 1.34 9.19 6.24 14.89 6.22 5.32.28 10.65.03 15.99.08 5.38-.08 11.03.13 16.02-2.26 3.11-1.52 6.42-2.61 9.9-2.82-.27 2.31-.49 4.75-1.96 6.67-5.56 1.84-10.47 6.21-11.58 12.15-2.25 7.54 2.02 15.58 8.44 19.59 2.1 1.97 4.08 4.47 3.29 7.55-5.98-.55-11.06-4.41-17.07-4.65-6.03-.31-12.06-.06-18.08-.35-3.11-.02-6.33-.38-9.31.65-4.12 1.7-7.57 4.9-12.03 5.79-7.12 1.29-15 .24-20.81-4.32-5.23-4.22-9.67-10.2-9.86-17.15-.98-7.84 1.8-16.05 7.73-21.34m13.77 2.01c-5.5 1.05-10.35 4.99-12.32 10.26-4.24 9.24 2.61 21.7 12.93 22.47 9.87 1.65 19.75-7.42 18.7-17.44.13-9.75-10-17.19-19.31-15.29zM112.98 559.92c6.39-2.27 13.78-2.05 19.79 1.26 10.36 5.17 16.25 17.68 13.34 28.94-2.58 8.01-8.89 15.2-17.23 17.36-6.34 1.53-13.44 1.11-19.12-2.31-3.06-1.65-6.02-4.03-9.68-3.9-6.03-.15-12.07.1-18.1-.02-4.14.01-8.51-.48-12.34 1.45-3.4 1.63-7 2.83-10.74 3.34.19-2.17.46-4.32.85-6.45 4.15-1.83 8.22-4.55 10.24-8.76 4.29-8.68-.4-20.62-9.68-23.65-.48-2.38-.69-4.8-.48-7.21 5.92.98 10.95 5.24 17.11 4.94 8.02-.19 16.04.47 24.04.05 4.54-.13 7.94-3.5 12-5.04m5.44 7.62c-10.13 1.72-16.35 14.16-11.28 23.2 4.09 8.61 16.03 11.8 23.9 6.51 8-4.84 9.95-16.95 3.8-24.02-3.75-5.07-10.37-7.05-16.42-5.69zM840.92 576.94c4.71-10.25 17.01-16.03 27.96-13.64 5.1.68 8.88 4.62 13.7 6.04 5.44.83 10.97.2 16.45.46 5.45-.05 11.19.78 16.36-1.43 3.49-1.5 7.06-2.86 10.83-3.47.11 2.36-.23 4.72-.96 6.98-3.26 1.24-6.44 3.04-8.5 5.94-4.74 6.15-4.49 15.83.95 21.5 2.82 2.99 6.58 5.12 10.7 5.62-.03 2.87-.19 5.75-.54 8.6-.45-2.53-.84-5.06-1.23-7.59-.48 1.61-.94 3.22-1.39 4.85-3.69-.69-7.2-2.02-10.62-3.53-4.27-1.92-9.06-1.4-13.6-1.46-5.35.11-10.7-.17-16.04.03-5.15-.03-8.89 4.05-13.56 5.55-12.33 4.68-27.33-3.01-31.59-15.28-1.8-6.24-1.93-13.28 1.08-19.17m18.49-5.37c-7.59 1.82-13.34 9.55-12.87 17.35.81 7.43 6.75 14.41 14.44 15.1 9.76 1.55 19.35-7.13 18.67-17.02-.01-10.06-10.62-17.74-20.24-15.43zM116.94 634.69c12.01-2.66 25.04 5.41 28.29 17.19 2.04 6.21 1.05 13.06-1.51 18.97-5.05 10.37-18.03 15.83-29.03 12.48-4.95-1.15-8.59-5.51-13.72-6.03-6.97-.38-13.95-.01-20.92-.15-2.87.18-6.46-.59-8.35 2.2-4.6 2.49-9.69 4.06-14.89 4.67-.14-2.61-.24-5.22-.58-7.8l-.03-.4c5.65-1.17 11.55-4.2 13.67-9.92 4.06-9.03-1.01-21.26-10.97-23.56.13-2.15.27-4.3.42-6.43 5.91.34 10.71 4.75 16.7 4.5 7.97-.02 15.95 0 23.92.03 6.33.33 10.81-5.31 17-5.75m1.79 8.43c-4.88 1.15-9.47 4.15-11.84 8.66-1.88 3.43-1.87 7.52-1.31 11.29 1.57 6.96 8.13 12.8 15.4 12.74 9 .73 17.79-7.65 16.85-16.8.52-9.75-9.56-18.36-19.1-15.89zM840.52 652.64c4.88-9.96 16.64-16.06 27.58-13.92 5.32.88 9.43 4.92 14.74 5.84 6.33 1.1 12.8.42 19.2.59 4.82.1 9.79.1 14.34-1.75 3.81-1.55 7.91-2.5 12.03-1.72-.05 1.53-.09 3.07-.12 4.62-4.47 1.3-9.03 3.27-11.86 7.15-4.85 6.47-4.24 16.78 2.01 22.16 1.8 1.87 4.28 2.77 6.51 4.02 1.27 1.97 3.44 5.19.56 6.86-5.78-.46-10.63-4.48-16.46-4.74-7.97-.35-15.98-.54-23.95-.34-5.53.11-9.84 3.95-14.8 5.8-7.13 2.01-15.21 1.16-21.28-3.27-10.04-6.53-13.36-20.59-8.5-31.3m16.05-4.71c-4.12 1.61-7.23 5.21-9.05 9.15-3.47 7.89.65 18 8.55 21.37 8.05 3.56 18.19-.76 21.95-8.53 3.22-6.76.74-15.35-5.1-19.83-4.67-3.36-10.97-4.22-16.35-2.16zM113.93 710.86c7.45-2.18 15.91-.74 22.05 4.08 10.95 8.05 13.54 25.3 4.88 35.92-5.91 8.32-17.43 10.76-26.86 8.01-4.07-1.18-7.41-3.96-11.36-5.39-3.46-.91-7.08-.61-10.63-.66-5.68.12-11.38-.25-17.05.27-4.83.46-8.93 3.39-13.62 4.36-1.06.19-2.56.57-3.02-.79-.14-1.8.22-3.57.52-5.32 5.29-1.73 9.44-6.03 11.27-11.24 2.41-8.16-1.59-17.2-8.99-21.23-2.01-1.83-2.91-4.39-3.04-7.04 3.66-.28 7.06 1.07 10.22 2.78 4.5 2.48 9.78 1.75 14.71 1.81 6.01-.16 12.03.23 18.04-.07 4.88-.19 8.35-4.19 12.88-5.49m4.51 7.84c-6.13 1.08-11.46 5.82-13.13 11.85-3.43 10.2 6.02 21.91 16.63 21.17 8.27-.1 15.59-7.55 15.81-15.76.89-10.06-9.3-19.45-19.31-17.26zM838.74 732.7c2.76-12.1 15.83-20.88 28.08-18.29 5.43.67 9.74 4.36 14.81 6.02 5.75.86 11.6.13 17.4.28 5.98-.19 12.33.92 17.93-1.82 3.17-1.54 6.58-2.64 10.15-2.54-.35 1.76-.81 3.51-1.49 5.18.51.19 1.52.57 2.03.77l.01.35c-10.07-.08-17.73 12.08-14.11 21.44 1.72 6.63 7.73 11.09 14.17 12.66-.02 2.41-.05 4.84-.23 7.26-2.76-.26-5.55-.5-8.17-1.43-3.79-1.19-7.18-3.73-11.26-3.8-8.02-.27-16.05-.11-24.07-.14-3.32-.19-5.84 2.22-8.56 3.71-4.87 2.96-10.8 3.71-16.38 3.08-8.97-1.08-16.92-7.37-20.5-15.6.26-5.72-1.57-11.52.19-17.13m20.62-10.1c-4.98 1.12-9.36 4.54-11.7 9.07-4.5 8.74.63 20.89 10.32 23.22 9.6 3.14 20.59-4.91 20.8-14.91 1.27-10.26-9.4-19.61-19.42-17.38zM112.16 787.2c8.58-2.96 19.06-1.63 25.56 5.08 7.8 7.07 9.24 18.92 5.96 28.53-4.9 12.81-21.74 18.64-33.75 12.37-3.24-1.55-6.1-4.33-9.89-4.34-6.36-.26-12.73.07-19.09-.08-4.22.02-8.74-.52-12.61 1.56a38.685 38.685 0 0 1-10.3 3.55c-.09-2.38.29-4.73 1.46-6.82-.4.02-1.2.07-1.6.09 4.72-1.46 8.98-4.69 10.92-9.32 4.36-8.72-.09-21.06-9.75-23.82-.28-.12-.85-.34-1.14-.45.25-2.11.5-4.2.74-6.29 4.08.35 7.92 1.81 11.66 3.37 4.95 2.12 10.44 1.61 15.68 1.62 4.68-.1 9.37.2 14.04-.03 4.59-.06 7.98-3.55 12.11-5.02m4.38 7.54c-6.57 1.6-11.76 7.57-12.16 14.36-1.41 10.45 9.45 20.13 19.65 18.12 8.59-1.46 14.62-10.8 13.21-19.23-1.01-4.59-3.77-8.84-7.68-11.46-3.8-2.55-8.68-2.69-13.02-1.79zM848.84 792.93c5.46-3.75 12.4-4.48 18.8-3.38 5.48 1.2 9.57 5.93 15.25 6.5 5.01.48 10.05.08 15.08.22 5.39.01 10.98.66 16.2-1.12 3.3-.99 6.32-2.8 9.68-3.63 2.55-.13 2.33 2.91 1.32 4.46-3.31 1.36-7.94 1.99-8.07 6.51-2.57 3.66-5 7.83-4.71 12.48-.18 7.15 4.69 14.29 11.83 15.89.54 2.31.84 4.67.98 7.05-3.72-.74-7.33-1.89-10.78-3.42-5.78-2.69-12.29-1.62-18.43-1.77-4.94.18-9.96-.59-14.84.35-5.15 1.7-9.56 5.55-15.16 5.87-7.6 1.12-16.11-.53-21.12-6.8-11-10.48-9.4-31.44 3.97-39.21m10.82 4.97c-6.35 1.06-11.87 5.92-13.51 12.18-2.44 8.2 2.67 17.73 10.86 20.23 4.69.95 10 .7 14.02-2.18 6.14-4.14 9.28-12.56 6.45-19.57-2.45-7.17-10.38-11.84-17.82-10.66zM56.52 858.15c7.52.16 15.04.18 22.56.46 1.31 2.06 2.67 4.09 4.13 6.05 3.18.12 6.5 1 9.6.02 2.25-1.53 3.38-4.17 4.88-6.35 15.59.46 31.19.15 46.79.24.09 16.18-.54 32.37-.79 48.54.23 3.11-3.41 3.37-5.67 3.26-13.69-.26-27.37.18-41.05-.25-1.31-1.99-2.36-4.29-4.33-5.72-3.37-.61-6.82-.24-10.22-.13-1.09 1.99-2.08 4.08-3.59 5.81-7.63.62-15.34.11-23 .2-.04-2.82-.06-5.64-.22-8.44 6.42-1.46 12.53-6.05 14.05-12.71 2.99-9.61-3.72-22.02-14.33-22.45l.05-.04c.26-.23.78-.7 1.05-.94.14-2.52.09-5.04.09-7.55m60.64 10.18c-7.7 1.17-13.62 8.88-12.98 16.61-.48 9.6 9.32 17.7 18.63 16.09 4.23-.71 8.37-2.79 10.84-6.39 4.94-6.57 4.25-16.82-1.76-22.51-3.9-3.61-9.58-4.87-14.73-3.8zM837.69 865.71c5.97-1.63 12.22-.68 18.31-.57 8.67.2 17.33-.12 26 .05 4.26-.58 5.41 4.84 9.08 5.78 2.63.58 5.42.91 8.09.34 3.47-1.26 5.17-5.76 9.18-5.85 5.89-.28 11.87-.57 17.69.57-.47 2.07-.94 4.15-1.5 6.21l-.03.12c-5.84 1.31-10.55 5.93-12.22 11.63-2.84 8.88 2.4 19.94 11.98 21.72 1.17 2.14 1.5 4.57 1.63 7-6.88.26-13.77.16-20.65-.01-2.12-2.53-4-5.87-7.54-6.48-4.56-1.19-8.91 1.45-11.73 4.85-1.65 2.2-4.68 1.45-7.05 1.66-12.65-.25-25.31-.01-37.96-.07-1.21-.15-3.65.15-3.49-1.71-.33-11.65.1-23.32-.21-34.98.01-3.42-.39-6.91.42-10.26m18.34 7.16c-4.1 1.51-7.85 4.38-9.77 8.38-4.05 7.71-.3 18.08 7.2 22.18 7.6 4.39 18.4 1.04 22.22-6.86 4.79-8.37.69-20.83-8.7-23.83-3.57-.84-7.42-.88-10.95.13z"/></g></svg>