<svg version="1.2" xmlns="http://www.w3.org/2000/svg" viewBox="0 0 640 405" width="100%" height="100%">
  <style>
    .a { fill: #fff }
  </style>
  <path class="a"
    d="m206.6 22.5c8.7 0 17.4 0.6 26 2 8.5 1.3 17 3.2 25.3 5.8 8.3 2.5 16.4 5.7 24.2 9.5 7.9 3.8 15.4 8.1 22.6 13l13.8-18.6c-8.3-5.4-16.9-10.2-25.9-14.4-8.9-4.3-18.2-7.8-27.6-10.7-9.5-2.9-19.1-5.1-28.9-6.6-9.7-1.6-19.6-2.4-29.5-2.5-9.9 0.1-19.7 0.9-29.5 2.5-9.8 1.5-19.4 3.7-28.9 6.6-9.4 2.9-18.6 6.5-27.6 10.7-8.9 4.2-17.6 9-25.8 14.4l13.7 18.6c7.2-4.9 14.8-9.2 22.6-13 7.8-3.8 15.9-7 24.2-9.5 8.3-2.6 16.8-4.5 25.4-5.8 8.5-1.4 17.2-2 25.9-2z" />
  <path class="a"
    d="m260 116.6l8.2-11.1q-6.8-4.3-14.1-7.7-7.4-3.4-15.1-5.7-7.7-2.4-15.7-3.7-7.9-1.3-16-1.5h-1.2-0.1q-8.1 0.2-16.1 1.5-7.9 1.3-15.7 3.7-7.7 2.3-15 5.7-7.4 3.4-14.2 7.7l8.3 11.1q6-3.8 12.4-6.7 6.4-2.9 13.2-4.9 6.7-2 13.7-3.1 7-1.2 14-1.4 7.1 0.2 14 1.4 7 1.1 13.7 3.1 6.8 2 13.2 4.9 6.5 2.9 12.5 6.7z" />
  <path class="a"
    d="m206.6 43.9q-11.4 0.2-22.7 1.9-11.3 1.8-22.3 5.2-10.9 3.3-21.3 8.2-10.3 4.8-19.9 11l10.9 15c11.1-7.3 23.2-13 36-16.9 12.7-3.8 26-5.8 39.3-5.8 13.3 0 26.6 2 39.3 5.8 12.8 3.9 24.9 9.6 36 16.9l10.9-15q-9.6-6.2-19.9-11-10.4-4.9-21.3-8.2-11-3.4-22.3-5.2-11.2-1.7-22.7-1.9z" />
  <path class="a"
    d="m206.6 379.9c-8.7 0-17.4-0.6-25.9-1.9-8.6-1.3-17.1-3.3-25.4-5.9-8.3-2.5-16.4-5.7-24.2-9.5-7.8-3.8-15.4-8.1-22.6-13l-13.7 18.6c8.2 5.4 16.9 10.3 25.8 14.5 9 4.2 18.2 7.7 27.6 10.6 9.5 2.9 19.1 5.1 28.9 6.7 9.8 1.5 19.6 2.3 29.5 2.4 9.9-0.1 19.8-0.9 29.5-2.4 9.8-1.6 19.4-3.8 28.9-6.7 9.4-2.9 18.7-6.4 27.6-10.6 9-4.2 17.6-9.1 25.9-14.5l-13.8-18.6c-7.2 4.9-14.7 9.2-22.6 13-7.8 3.8-15.9 7-24.2 9.5-8.3 2.6-16.8 4.6-25.3 5.9-8.6 1.3-17.3 1.9-26 1.9z" />
  <path class="a"
    d="m153.3 285.9l-8.3 11q6.8 4.4 14.2 7.7 7.3 3.4 15 5.7 7.7 2.4 15.7 3.7 8 1.3 16 1.5h0.1 1.2q8.1-0.2 16.1-1.5 8-1.3 15.7-3.7 7.7-2.3 15.1-5.7 7.3-3.3 14.1-7.7l-8.2-11q-6 3.7-12.5 6.6-6.4 2.9-13.1 4.9-6.8 2-13.8 3.2-6.9 1.1-14 1.3-7-0.2-14-1.3-7-1.2-13.7-3.2-6.8-2-13.2-4.9-6.4-2.9-12.4-6.6z" />
  <path class="a"
    d="m120.4 332.2q9.6 6.3 19.9 11.1 10.4 4.8 21.3 8.2 11 3.3 22.3 5.1 11.3 1.8 22.7 2 11.5-0.2 22.7-2 11.3-1.8 22.3-5.1 10.9-3.4 21.3-8.2 10.3-4.8 19.9-11.1l-10.9-15c-11.1 7.4-23.2 13.1-36 16.9-12.7 3.9-26 5.8-39.3 5.8-13.3 0-26.6-1.9-39.3-5.8-12.8-3.8-24.9-9.5-36-16.9z" />
  <path fill-rule="evenodd" class="a" d="m118.8 231.6h-72.2v-146.5h-46.6v185.3h118.8v-38.8z" />
  <path class="a"
    d="m445.2 188c3.5-2.4 6.7-5.2 9.5-8.4 2.8-3.3 5.1-6.8 7-10.7 1.9-3.8 3.3-7.8 4.1-12 0.8-4.2 1.1-8.5 0.9-12.7 0.3-4.2 0.1-8.4-0.5-12.6-0.7-4.1-1.8-8.2-3.4-12-1.6-3.9-3.6-7.6-6-11.1-2.4-3.4-5.2-6.5-8.3-9.3q-5-3.7-10.5-6.5-5.6-2.8-11.5-4.6-6-1.8-12.2-2.5-6.1-0.7-12.3-0.4h-94.5v185h46v-66.5h29.5l36.3 66.5h51.7l-42.3-74.2q2.2-0.6 4.3-1.4 2.2-0.8 4.3-1.8 2-1.1 4-2.2 2-1.2 3.9-2.6zm-47.1-18.3h-44.6v-50.5h42c3.4-0.4 6.9 0 10.1 1.1 3.3 1.1 6.2 3 8.6 5.4 2.4 2.4 4.3 5.4 5.4 8.6 1.1 3.2 1.5 6.7 1.1 10.1 0.4 3.2 0.1 6.4-0.8 9.5-1 3.1-2.6 5.9-4.7 8.3-2.2 2.4-4.8 4.3-7.7 5.6-3 1.3-6.2 1.9-9.4 1.9z" />
  <path class="a"
    d="m206.7 274c29 0 73.5-13.8 73.5-74.1 0-60.2-48.8-71.5-73.5-71.5-29.7 0-73.7 14.8-73.7 72.8 0 58 44.7 72.8 73.7 72.8zm-0.4-114.7c14.6 0 33.3 7.9 33.3 41.3 0 33.3-16.4 42.6-32.5 42.6-16.2 0-33.4-10.2-33.4-42 0-31.7 17.1-41.9 32.6-41.9z" />
  <path class="a"
    d="m610.3 170c0-20.4-7.7-41.8-58.9-41.8-51.3 0-59.6 24.1-59.6 43.4h39c0.1-2.7 0.7-5.3 1.8-7.7 1.2-2.5 2.8-4.6 4.8-6.4 2-1.7 4.4-3 7-3.8 2.5-0.7 5.2-1 7.9-0.6 8.2 0 18.6 2.9 18.6 13 0 10-0.2 13.1-0.2 13.1-78.9 9.7-85.5 30-85.5 55.7 0 25.7 23.7 39.2 45.6 39.2 4 0.2 8 0 12-0.8 3.9-0.7 7.7-1.8 11.4-3.4 3.7-1.6 7.1-3.7 10.3-6.1 3.2-2.4 6.1-5.2 8.7-8.2q0.2 1.8 0.4 3.7 0.3 1.8 0.7 3.6 0.4 1.9 0.8 3.7 0.5 1.8 1.1 3.5h37.4q-0.9-2.5-1.6-5.1-0.6-2.6-1-5.2-0.4-2.6-0.6-5.3-0.2-2.7-0.1-5.3zm-40 46.8c0.1 3.8-0.6 7.4-2 10.9-1.4 3.4-3.5 6.5-6.2 9.1-2.6 2.6-5.8 4.6-9.3 6-3.4 1.3-7.1 1.8-10.9 1.7-2.3 0.3-4.6 0.1-6.8-0.6-2.2-0.7-4.3-1.9-6-3.5-1.7-1.5-3-3.5-3.8-5.7-0.9-2.1-1.2-4.5-1-6.8 0-3.8 3.1-13.2 21.5-17.8q3.1-0.7 6.2-1.5 3.1-0.8 6.1-1.7 3.1-0.9 6.1-1.9 3.1-1 6-2.1z" />
  <path class="a"
    d="m629.7 97.8v-0.1q0.6-0.1 1-0.4 0.5-0.2 0.9-0.6 0.3-0.5 0.5-0.9 0.2-0.5 0.3-1.1 0-0.4-0.1-0.8 0-0.4-0.2-0.7-0.2-0.4-0.4-0.7-0.3-0.3-0.6-0.6-0.5-0.3-1-0.5-0.5-0.2-1.1-0.3-0.6-0.1-1.2-0.2-0.5 0-1.1 0.1-0.6-0.1-1.2 0-0.7 0-1.3 0-0.6 0.1-1.2 0.2-0.6 0-1.2 0.1v12.8h3v-5.1h1.4c1.6 0 2.4 0.6 2.6 2q0.1 0.4 0.2 0.8 0.1 0.4 0.2 0.8 0.1 0.4 0.3 0.8 0.1 0.4 0.3 0.7h3.2q-0.2-0.3-0.3-0.7-0.2-0.4-0.3-0.8-0.1-0.4-0.2-0.8-0.1-0.4-0.1-0.9-0.1-0.5-0.3-1-0.2-0.4-0.5-0.8-0.3-0.5-0.7-0.8-0.4-0.3-0.9-0.5zm-3.5-0.9h-1.4v-3.7q0.2 0 0.4 0 0.2-0.1 0.4-0.1 0.2 0 0.5 0 0.2 0 0.4 0c1.8 0 2.7 0.8 2.7 1.9 0 1.4-1.3 1.9-3 1.9z" />
  <path class="a"
    d="m626.8 84.7c-5.2 0-9.8 3.3-11.8 8.1-1.9 4.8-0.7 10.3 3 13.9 3.7 3.7 9.3 4.7 14 2.7 4.8-2.1 7.9-6.8 7.9-11.9-0.1-1.7-0.4-3.4-1.1-5-0.6-1.6-1.6-3-2.8-4.2-1.2-1.2-2.7-2.1-4.3-2.7-1.5-0.7-3.2-1-4.9-0.9zm0 23c-4.1 0.2-8-2.2-9.8-6-1.7-3.8-0.9-8.3 2-11.3 2.9-3.1 7.3-4 11.2-2.4 3.9 1.5 6.4 5.3 6.4 9.5 0 1.3-0.2 2.6-0.7 3.9-0.4 1.2-1.1 2.3-2 3.3-1 0.9-2 1.7-3.3 2.2-1.2 0.5-2.5 0.8-3.8 0.8z" />
</svg>