<svg version="1.2" xmlns="http://www.w3.org/2000/svg" viewBox="0 0 342 300" width="342" height="300"><style>.a{fill:none}.b{opacity:.6;fill:#00a9ce}.c{opacity:.8;fill:#00a9ce}.d{opacity:.5;fill:#00a9ce}.e{fill:#00a9ce}</style><path class="a" d=""/><path class="b" d="m243.6 1.9c0 0-0.5 0 0 0-1.4 0.9-1.9 1.4-2.8 1.4l-72.6 41.7 84.3 48.8v-93.8c-2.8 0-6.1 0.9-8.9 1.9z"/><path class="c" d="m95.1 295.8l76.8-44.5-84.3-48.8v95.2c2.4 0.4 4.7-0.5 7.5-1.9z"/><path class="d" d="m338.7 246.1l-172.9-99.9-7.9-4.6-156-90.5c-1 2.8-1.9 5.6-1.9 8.9 0 0.5 0 1.4 0 1.9v179c0 5.7 3.3 10.8 8 13.6l71.2 41.8c2.3 1.4 5.1 1.8 7.9 1.8v-91.4-3.7l161.7 93.3c0.4 0.4 0.9 0.4 1.4 0.4h0.4c4.7 1.9 8.5 0.5 12.7-2.3l27.2-15.5 43.1-25.8c2.3-1.4 4.2-4.2 5.1-7z"/><path class="e" d="m339.7 128v-68c0-8.9-4.7-16.9-12.2-21.1l-62.8-36.1c-3.7-1.9-8-2.8-12.2-2.8v94.2l-141-82-15.9-8.9c-7.1-3.8-13.1-4.2-20.2-1 0 0-0.4 0-0.4 0.5-1 0.5-1.4 1-2.4 1.4l-24.8 14.5-35.6 20.7c-4.7 2.8-8.5 7-10.8 12.2l156 90 8 4.6 172.9 99.9c0.9-3.3 0.9-8.9 0.9-8.9v-109.2z"/></svg>